<svg xmlns="http://www.w3.org/2000/svg" version="1.1" xmlns:xlink="http://www.w3.org/1999/xlink" width="512" height="512" x="0" y="0" viewBox="0 0 511.822 511.822" style="enable-background:new 0 0 512 512" xml:space="preserve" class=""><g><path d="m398.22 208.097-21.25-16.6 3.85-30.97-3.51-9.43 13.63-16.14 23.39-.98M375.25 92.002l-13.667 17.137-2.853 17.57-14.689 5.461-20.61-17.503 14.495-28.193M276.46 140.877l20.87-1.29 22.18 22.73 3.58 19.74 18.44 6.93 7.05 27.77-8.13 13.04v.01M251.34 46.887c30.62-13.8 62.05-27.82 80.88-35.82 23.06-9.8 33.38 2.22 38.58 21.92l-188.31 70.01c-1.3.48-2.63.71-3.94.71-4.53 0-8.8-2.73-10.55-7.18-2.21-5.61.35-11.95 5.83-14.45 12.94-5.91 37.28-17.01 63.81-29M252.7 323.917l15.53 41.68c5.78 15.52 23.05 23.42 38.57 17.65l12.53-4.66M228.53 259.037 168 96.527M426.928 260.199l35.73-13.283M437.685 289.134l35.73-13.283" style="stroke-width:15;stroke-miterlimit:10;" fill="none" stroke="#0098ff" stroke-width="15" stroke-miterlimit="10" data-original="#000000" opacity="1" class=""></path><path d="M284.26 284.257 212.7 91.767l165.43-61.51c15.53-5.77 32.8 2.14 38.58 17.67l49.62 133.48M471.56 195.467l30.87 83.04c5.78 15.53-2.13 32.8-17.66 38.57l-165.44 61.51-25.66-69.02M89.438 284.259H190.18M190.18 309.572H89.438M362.562 284.259H262.25M262.25 309.572h100.312M0 408.095h135M121.5 408.095c0 29.823-24.177 54-54 54s-54-24.177-54-54" style="stroke-width:15;stroke-miterlimit:10;" fill="none" stroke="#0098ff" stroke-width="15" stroke-miterlimit="10" data-original="#000000" opacity="1" class=""></path><circle cx="67.5" cy="296.916" r="25.312" style="stroke-width:15;stroke-miterlimit:10;" fill="none" stroke="#0098ff" stroke-width="15" stroke-miterlimit="10" data-original="#000000" opacity="1" class=""></circle><circle cx="226" cy="296.916" r="37.969" style="stroke-width:15;stroke-miterlimit:10;" fill="none" stroke="#0098ff" stroke-width="15" stroke-miterlimit="10" data-original="#000000" opacity="1" class=""></circle><path d="m80.677 318.505 31.021 89.59M54.323 318.505l-31.021 89.59M317 408.095h135M438.5 408.095c0 29.823-24.177 54-54 54s-54-24.177-54-54" style="stroke-width:15;stroke-miterlimit:10;" fill="none" stroke="#0098ff" stroke-width="15" stroke-miterlimit="10" data-original="#000000" opacity="1" class=""></path><circle cx="384.5" cy="296.916" r="25.312" style="stroke-width:15;stroke-miterlimit:10;" fill="none" stroke="#0098ff" stroke-width="15" stroke-miterlimit="10" data-original="#000000" opacity="1" class=""></circle><path d="m397.677 318.505 31.021 89.59M371.323 318.505l-31.021 89.59M241 332.536v111.559M211 444.095V332.538M286 504.237v-30.142c0-16.569-13.431-30-30-30h-60c-16.569 0-30 13.431-30 30v30.142M332.89 504.237h-78.4M239.49 504.237H119.11" style="stroke-width:15;stroke-miterlimit:10;" fill="none" stroke="#0098ff" stroke-width="15" stroke-miterlimit="10" data-original="#000000" opacity="1" class=""></path><circle cx="346.43" cy="158.011" r="72.03" style="stroke-width:15;stroke-miterlimit:10;" fill="none" stroke="#0098ff" stroke-width="15" stroke-miterlimit="10" data-original="#000000" opacity="1" class=""></circle><path d="M203.5 474.921h15M233.5 474.921h15" style="stroke-width:15;stroke-miterlimit:10;" fill="none" stroke="#0098ff" stroke-width="15" stroke-miterlimit="10" data-original="#000000" opacity="1" class=""></path></g></svg>