<svg xmlns="http://www.w3.org/2000/svg" version="1.1" xmlns:xlink="http://www.w3.org/1999/xlink" width="512" height="512" x="0" y="0" viewBox="0 0 128 128" style="enable-background:new 0 0 512 512" xml:space="preserve" class=""><g><path d="M20.587 74.578a2 2 0 0 0 0 2.828l26 26.004a18.126 18.126 0 0 1 1.543-4.114L23.415 74.578a2 2 0 0 0-2.828 0zM28.587 66.577a2 2 0 0 0 0 2.828l24.279 24.282a17.297 17.297 0 0 1 3.545-2.112L31.415 66.577a2 2 0 0 0-2.828 0zM71.812 100.936a16.903 16.903 0 0 1-3.935-.734l-1.811 12.177a4.955 4.955 0 0 0 1.266 4.128l3.246 3.476.094.094a3.47 3.47 0 0 0 4.696 0l3.342-3.57a4.786 4.786 0 0 0 1.214-4.125l-2.185-12.07a16.917 16.917 0 0 1-3.948.644l2.208 12.196a1.12 1.12 0 0 1-.087.495l-2.892 3.09-2.861-3.06a1.102 1.102 0 0 1-.145-.658z" fill="#0098ff" opacity="1" data-original="#000000"></path><path d="M86.28 94.584a17.132 17.132 0 0 1-3.688 3.436c5.567.257 9.411 4.33 9.411 10.1V124H54.002v-15.88c0-5.77 3.844-9.843 9.411-10.1a17.132 17.132 0 0 1-3.687-3.436c-5.823 1.69-9.724 6.866-9.724 13.535V126a2 2 0 0 0 2 2.001h42.001a2 2 0 0 0 2-2v-17.88c0-6.67-3.9-11.847-9.724-13.536zM87.043 74.423a16.966 16.966 0 0 1 1.861 3.61 28.014 28.014 0 1 0-31.804.003 16.963 16.963 0 0 1 1.86-3.61c-.294-.211-.575-.447-.862-.672a10.622 10.622 0 0 0-.616-8.726c-2.169-3.838-6.51-5.486-8.118-5.983a24.146 24.146 0 0 1-.296-2.836 5.444 5.444 0 0 0 3.755-2.442 4.95 4.95 0 0 1 2.015-1.3c3.122-1.408 4.046-3.757 3.839-7.035a4.206 4.206 0 0 1 .272-2.464c.846-1.408 2.536-2.05 3.229-3.584.805-1.782.091-3.765-.94-5.29a23.794 23.794 0 0 1 3.265-1.535 5.809 5.809 0 0 0 .945 1.774 9.661 9.661 0 0 0 7.358 3.657c2.84 0 6.461-1.162 8.472-3.906.069-.093.931-1.261.953-1.252a23.759 23.759 0 0 1 10.779 8.922 4.866 4.866 0 0 0-2.323 1.791 4.605 4.605 0 0 0-2.397-2.492 2.949 2.949 0 0 0-2.79.49c-.137.104-.796.776-.998.71a4.173 4.173 0 0 0-2.2-.28 3.713 3.713 0 0 0-2.98 2.215c-.672 1.854.614 3.52 1.976 5.285 2.262 2.932 2.55 3.918 1.737 4.818-.033.03-.463-.454-.51-.508a23.074 23.074 0 0 1-2.093-2.55c-1.08-2.097-2.422-4.707-5.096-6.338a8.89 8.89 0 0 0-9.89.628c-2.788 2.232-3.694 4.829-2.689 7.718a8.914 8.914 0 0 0 2.32 4.059c.544.476 1.453 1.27 1.366 1.701-.263 1.307-1.453 2.643-2.604 3.935-1.962 2.204-4.537 5.497-3.179 8.657a4.049 4.049 0 0 0 .248.47c-.124-.207 2.295-1.94 2.544-2.109.469-.318.841-.44 1.031-.974a10.652 10.652 0 0 1 2.343-3.382c1.435-1.612 3.061-3.438 3.539-5.807.544-2.704-1.535-4.524-2.653-5.501a5.255 5.255 0 0 1-1.177-2.362c-.547-1.575.727-2.985 2.027-3.685a4.89 4.89 0 0 1 4.69.068c1.589.968 2.542 2.652 3.622 4.751a21.41 21.41 0 0 0 2.648 3.365 5.103 5.103 0 0 0 3.412 1.968 3.3 3.3 0 0 0 2.363-.741c4.462-3.764 1.018-8.227-.832-10.625-.187-.242-.41-.531-.62-.816.44.593 3.338-.699 3.266-.858a6.567 6.567 0 0 0 .894 2.024 3.179 3.179 0 0 0 2.798 1.052 4.728 4.728 0 0 0 3.14-2.56 1.203 1.203 0 0 1 1.032-.474 24.092 24.092 0 0 1-.611 20.492c-.057-.083-.104-.172-.164-.253a7.512 7.512 0 0 0-7.106-3.008c-2.817.166-5.81.367-8.139 2.147-.635.486-1.21 1.516-1.985 1.747a8.413 8.413 0 0 1-1.105.212 12.04 12.04 0 0 0-1.587.321 16.848 16.848 0 0 1 6.275 1.727 7.189 7.189 0 0 1 .834-.83c1.544-1.182 3.639-1.204 5.493-1.305 1.62-.087 3.064-.039 4.103 1.367a4.469 4.469 0 0 1 .804 1.882 21.624 21.624 0 0 1-4.744 4.527zM54 66.996a5.888 5.888 0 0 1 .707 3.487 23.822 23.822 0 0 1-3.943-6.5 8.354 8.354 0 0 1 3.236 3.013zm4.493-29.228a20.341 20.341 0 0 0-2.63 2.647 6.246 6.246 0 0 0-1.212 4.02c-.007 1.006.486 2.858-.25 3.691a3.993 3.993 0 0 1-1.208.695 8.822 8.822 0 0 0-3.623 2.62 3.639 3.639 0 0 1-.33.398 23.866 23.866 0 0 1 7.024-14.052 24.146 24.146 0 0 1 1.663-1.465 2.373 2.373 0 0 1 .566 1.446zm19.559-6.048a6.968 6.968 0 0 1-5.723 2.25 6.457 6.457 0 0 1-3.71-2.077 2.104 2.104 0 0 1-.265-.44 23.873 23.873 0 0 1 9.82.11l-.122.157z" fill="#0098ff" opacity="1" data-original="#000000"></path><path d="M86.003 83.993a13 13 0 1 0-13 13.002 13 13 0 0 0 13-13.002zm-13 9.002a9.001 9.001 0 1 1 9-9.002 9.011 9.011 0 0 1-9 9.002z" fill="#0098ff" opacity="1" data-original="#000000"></path><path d="m126.314 50.54-47.2-48.734a6.047 6.047 0 0 0-8.505-.116l-8.425 8.24-1.165-1.2a5.85 5.85 0 0 0-8.167-.11L.603 59.557a2.002 2.002 0 0 0-.036 2.828 2.053 2.053 0 0 0 2.83.036l52.248-50.938a1.786 1.786 0 0 1 2.505.034l1.174 1.208L1.806 68.973a6.016 6.016 0 0 0-.116 8.469l44.312 45.749v-5.75L4.564 74.658a2.006 2.006 0 0 1 .039-2.824L73.405 4.552a2.032 2.032 0 0 1 2.835.038l47.201 48.733a2.006 2.006 0 0 1-.039 2.824L88.945 89.842c-.159.432-.354.845-.545 1.26a17.48 17.48 0 0 1 3.334 1.61l34.465-33.704a6.016 6.016 0 0 0 .115-8.469z" fill="#0098ff" opacity="1" data-original="#000000"></path></g></svg>