<svg xmlns="http://www.w3.org/2000/svg" version="1.1" xmlns:xlink="http://www.w3.org/1999/xlink" width="512" height="512" x="0" y="0" viewBox="0 0 64 64" style="enable-background:new 0 0 512 512" xml:space="preserve" class=""><g><path d="M59 1H33.87a1 1 0 1 0 0 2H59c1.654 0 3 1.346 3 3v25H34a1 1 0 1 0 0 2h28v25c0 1.654-1.346 3-3 3H21c-1.654 0-3-1.346-3-3v-.35a1 1 0 1 0-2 0V58c0 2.757 2.243 5 5 5h38c2.757 0 5-2.243 5-5V6c0-2.757-2.243-5-5-5z" fill="#0098ff" opacity="1" data-original="#000000" class=""></path><path d="M34 11a1 1 0 1 0 0 2h24a1 1 0 0 0 1-1V6a1 1 0 0 0-1-1H34a1 1 0 1 0 0 2h23v4zM58 16H38a1 1 0 1 0 0 2h20a1 1 0 1 0 0-2zM58 21H38a1 1 0 1 0 0 2h20a1 1 0 1 0 0-2zM58 26H38a1 1 0 1 0 0 2h20a1 1 0 1 0 0-2zM4.377 37.827a.998.998 0 0 0-.37-1.364A4.003 4.003 0 0 1 2 33V7c0-2.206 1.794-4 4-4h24v34h-5.05a1 1 0 1 0 0 2H30c1.103 0 2-.897 2-2V3c0-1.103-.897-2-2-2H6C2.691 1 0 3.691 0 7v26a6.005 6.005 0 0 0 3.013 5.197c.475.274 1.09.109 1.364-.37z" fill="#0098ff" opacity="1" data-original="#000000" class=""></path><path d="M16 10c-5.514 0-10 4.486-10 10s4.486 10 10 10 10-4.486 10-10-4.486-10-10-10zm7.93 9h-2.983a13.126 13.126 0 0 0-2.349-6.558A8.012 8.012 0 0 1 23.931 19zm-4.978 0h-5.904c.222-2.47 1.262-4.8 2.952-6.602A11.115 11.115 0 0 1 18.952 19zm-5.55-6.558A13.126 13.126 0 0 0 11.052 19H8.07a8.012 8.012 0 0 1 5.333-6.558zM8.069 21h2.984c.181 2.37.995 4.637 2.35 6.558A8.012 8.012 0 0 1 8.068 21zm4.979 0h5.904A11.115 11.115 0 0 1 16 27.602 11.115 11.115 0 0 1 13.048 21zm5.55 6.558A13.125 13.125 0 0 0 20.948 21h2.983a8.012 8.012 0 0 1-5.333 6.558zM45 58h13a1 1 0 0 0 1-1V40a1 1 0 0 0-1-1H44a1 1 0 0 0-1 1v17a1 1 0 0 0 1 1zm1.1-2c.465-2.28 2.485-4 4.9-4s4.435 1.72 4.9 4zm2.9-8c0-1.103.897-2 2-2s2 .897 2 2-.897 2-2 2-2-.897-2-2zm-4-7h12v12.413a7.037 7.037 0 0 0-3.04-2.747A3.97 3.97 0 0 0 55 48c0-2.206-1.794-4-4-4s-4 1.794-4 4c0 1.028.4 1.957 1.04 2.666A7.037 7.037 0 0 0 45 53.413zM39 52H24.24a1 1 0 1 0 0 2H39a1 1 0 1 0 0-2zM39 47H26.65a1 1 0 1 0 0 2H39a1 1 0 1 0 0-2zM39 42H26.85a1 1 0 1 0 0 2H39a1 1 0 1 0 0-2zM25 45c0-6.065-4.935-11-11-11S3 38.935 3 45s4.935 11 11 11 11-4.935 11-11zm-11 9c-4.963 0-9-4.037-9-9s4.037-9 9-9 9 4.037 9 9-4.037 9-9 9z" fill="#0098ff" opacity="1" data-original="#000000" class=""></path><path d="M17.293 42.293 13 46.586l-2.293-2.293a1 1 0 1 0-1.414 1.414l3 3a.997.997 0 0 0 1.414 0l5-5a1 1 0 1 0-1.414-1.414z" fill="#0098ff" opacity="1" data-original="#000000" class=""></path></g></svg>