<svg xmlns="http://www.w3.org/2000/svg" version="1.1" xmlns:xlink="http://www.w3.org/1999/xlink" width="512" height="512" x="0" y="0" viewBox="0 0 682.665 682.667" style="enable-background:new 0 0 512 512" xml:space="preserve" class=""><g><defs><clipPath id="a" clipPathUnits="userSpaceOnUse"><path d="M0 512h511.999V0H0Z" fill="#0098ff" opacity="1" data-original="#000000"></path></clipPath></defs><g clip-path="url(#a)" transform="matrix(1.33333 0 0 -1.33333 0 682.667)"><path d="M0 0c24.917.573 47.356-10.041 62.693-27.152a36.257 36.257 0 0 0 5.453 1.849c25.672 6.555 5.461 29.496 19.118 33.866 13.655 4.37-4.916 28.95 3.277 43.698 8.193 14.748-36.051 19.664-61.178 12.562 0 0-17.478-3.277-13.655-20.21 3.823-16.932 6.009-25.126-13.109-35.504-5.522-2.998-8.53-6.314-10.355-9.66C-5.206-.254-2.622-.061 0 0Z" style="stroke-width:15;stroke-linecap:round;stroke-linejoin:round;stroke-miterlimit:10;stroke-dasharray:none;stroke-opacity:1" transform="translate(337.202 434.572)" fill="none" stroke="#0098ff" stroke-width="15" stroke-linecap="round" stroke-linejoin="round" stroke-miterlimit="10" stroke-dasharray="none" stroke-opacity="" data-original="#000000" opacity="1" class=""></path><path d="M0 0c-25.624 0-46.396 20.772-46.396 46.396 0 25.624 20.772 46.396 46.396 46.396 25.624 0 46.396-20.772 46.396-46.396C46.396 20.772 25.624 0 0 0Zm-1.921 127.979c-45.359-1.041-80.751-38.222-79.661-83.581.755-31.398 19.249-58.394 45.84-71.372a12.62 12.62 0 0 0 5.471-5.121l25.836-45.788c1.949-3.452 6.921-3.452 8.87 0l25.837 45.789a12.585 12.585 0 0 0 5.462 5.115c27.158 13.25 45.872 41.124 45.872 73.375 0 45.708-37.58 82.639-83.527 81.583z" style="stroke-width:15;stroke-linecap:round;stroke-linejoin:round;stroke-miterlimit:10;stroke-dasharray:none;stroke-opacity:1" transform="translate(339.123 306.593)" fill="none" stroke="#0098ff" stroke-width="15" stroke-linecap="round" stroke-linejoin="round" stroke-miterlimit="10" stroke-dasharray="none" stroke-opacity="" data-original="#000000" opacity="1" class=""></path><path d="M0 0c9.869-8.282 6.151-27.386 21.611-31.146 20.211-4.917 2.186-52.437 39.328-73.194 37.144-20.757 11.471 9.286 5.463 20.21-6.008 10.925-15.295 36.597-1.092 34.412 14.202-2.184 26.218 5.462 29.496 14.748 3.277 9.286-37.144 31.135-15.841 48.068 21.303 16.933 38.782 4.916 43.698 19.664 4.916 14.748 18.025 21.302 15.841 38.236-2.186 16.933-4.916 29.495-23.488 40.42s-10.378 32.228 16.933 38.782c27.311 6.555 16.387 21.849 12.563 37.69-3.824 15.839 8.193 21.848-3.824 37.688-3.533 4.657-7.917 6.804-12.51 7.914.007-.461.035-.916.035-1.379 0-32.251-18.715-60.124-45.873-73.374a12.588 12.588 0 0 1-5.461-5.115l-25.838-45.789c-1.948-3.452-6.921-3.452-8.869 0l-25.837 45.788a12.615 12.615 0 0 1-5.471 5.121c-26.591 12.978-45.085 39.974-45.84 71.372-.62 25.807 10.58 48.954 28.695 64.318-6.401.772-13.156.629-20.175-2.216-20.21-8.194-30.588-5.462-30.588-28.404 0-22.941-32.773-6.554-53.53-10.378-20.757-3.824-23.488-10.28-49.16-2.135-25.673 8.143-38.236-.596-44.79-15.891-6.555-15.294 13.655-31.681 4.916-47.52-8.74-15.841-25.673-14.203-13.11-33.867 12.564-19.664-19.117-14.202-25.126 0-6.009 14.203-28.404 29.497-36.051 24.035-7.647-5.463-14.748-22.942 0-30.589 14.749-7.648 19.118-17.48 11.471-22.396-7.647-4.916-21.569-3.823-20.07-12.016 1.498-8.194-6.275-23.123-.112-42.059 6.163-18.936-8.04-47.704.7-66.275 8.74-18.572 27.676 0 62.998-2.549s36.051 16.751 36.051 16.751-10.197 2.184-32.045 15.294c-21.849 13.109-18.208 52.073-4.37 50.616 13.837-1.456 8.375-17.843 28.403-26.219 20.028-8.375 17.479-30.223 50.253-33.501 32.773-3.277 7.647-33.866 28.949-60.085 21.303-26.218 2.186-30.042 21.85-35.504 19.664-5.463 14.748 39.328 32.227 46.429C-46.508-19.543-43.104-9.993-35-3.326" style="stroke-width:15;stroke-linecap:round;stroke-linejoin:round;stroke-miterlimit:10;stroke-dasharray:none;stroke-opacity:1" transform="translate(292.517 120.875)" fill="none" stroke="#0098ff" stroke-width="15" stroke-linecap="round" stroke-linejoin="round" stroke-miterlimit="10" stroke-dasharray="none" stroke-opacity="" data-original="#000000" opacity="1" class=""></path><path d="M0 0c.313 3.279.402 6.82.206 10.729-1.092 21.848 1.457 37.142-11.288 45.882-12.745 8.74-3.277-22.941-12.745-38.964 0 0-7.283-8.376-4.006-21.485s-15.658-24.033-13.474-36.778c2.186-12.745-12.381-30.589 4.735-37.144 17.114-6.554 24.397 2.185 26.218 9.468 1.821 7.283-11.289 15.294-3.641 30.953.703 1.44 1.406 2.835 2.102 4.201" style="stroke-width:15;stroke-linecap:round;stroke-linejoin:round;stroke-miterlimit:10;stroke-dasharray:none;stroke-opacity:1" transform="translate(504.19 284.563)" fill="none" stroke="#0098ff" stroke-width="15" stroke-linecap="round" stroke-linejoin="round" stroke-miterlimit="10" stroke-dasharray="none" stroke-opacity="" data-original="#000000" opacity="1" class=""></path></g></g></svg>