<svg xmlns="http://www.w3.org/2000/svg" version="1.1" xmlns:xlink="http://www.w3.org/1999/xlink" width="512" height="512" x="0" y="0" viewBox="0 0 480.016 480" style="enable-background:new 0 0 512 512" xml:space="preserve" class=""><g><path d="M424.016 120.008v-80a8 8 0 0 0-8-8h-32v16h24v72zM56.016 240.008v200a8 8 0 0 0 8 8h320a8 8 0 0 0 8-8v-56h-16v48h-304v-192zM315.328.809c-.25-.114-.488-.176-.746-.266a7.952 7.952 0 0 0-2.07-.414c-.176-.031-.328-.121-.496-.121h-248a8 8 0 0 0-8 8v16h16v-8h232v64a8 8 0 0 0 8 8h64v40h16v-48c0-.168-.086-.32-.098-.496a7.794 7.794 0 0 0-.414-2.07c-.09-.258-.152-.497-.266-.747a7.947 7.947 0 0 0-1.597-2.343l-72-72a8.013 8.013 0 0 0-2.313-1.543zm49.375 71.199h-44.687V27.32zm0 0" fill="#0098ff" opacity="1" data-original="#000000" class=""></path><path d="M184.016 336.008v64a8 8 0 0 0 8 8h104v-16h-96v-48h40v-16h-48a8 8 0 0 0-8 8zm0 0" fill="#0098ff" opacity="1" data-original="#000000" class=""></path><path d="M216.016 360.008h48v16h-48zm0 0" fill="#0098ff" opacity="1" data-original="#000000" class=""></path><path d="M424.016 136.008c-30.91.039-55.961 25.09-56 56v.8l-40.801 43.07-25.543-25.542a7.997 7.997 0 0 0-11.313 0l-72 72a8.004 8.004 0 0 0 0 11.312l112 112a8.004 8.004 0 0 0 11.313 0l24-24 42.344-42.328v124.688h-312v16h320a8 8 0 0 0 8-8v-192h-16v36.687l-27.887-27.886 43.086-40.801h.8c30.93 0 56-25.07 56-56s-25.07-56-56-56zm-88 252.687L235.328 288.008l12.688-12.688 100.687 100.688zm60.687-60.687-36.687 36.687-100.688-100.687 36.688-36.688 20.191 20.192-18 18.992a8 8 0 0 0 .152 11.2l40 40a7.998 7.998 0 0 0 11.153.151l19-18zm27.313-96h-4a8.015 8.015 0 0 0-5.504 2.191l-70.344 66.61-28.953-28.954 66.64-70.343a8 8 0 0 0 2.16-5.504v-4c0-22.09 17.91-40 40-40s40 17.91 40 40-17.91 40-40 40zM152.016 232.008h80v16h-80zM104.016 264.008h96v16h-96zM176.016 200.008h96v16h-96zM104.016 296.008h48v16h-48zM104.016 328.008h64v16h-64zm0 0" fill="#0098ff" opacity="1" data-original="#000000" class=""></path><path d="M104.016 360.008h64v16h-64zM104.016 392.008h64v16h-64zM104.016 232.008h32v16h-32zM168.016 296.008h32v16h-32zM200.016 160.008h80v16h-80zm0 0" fill="#0098ff" opacity="1" data-original="#000000" class=""></path><path d="M96.016 224.008c51.668-.059 94.023-41.004 95.832-92.64a21.148 21.148 0 0 0 15.511 4.847 21.697 21.697 0 0 0 33.313 0 21.698 21.698 0 0 0 23.55-23.55 21.684 21.684 0 0 0 7.794-16.657 21.684 21.684 0 0 0-7.793-16.656A21.698 21.698 0 0 0 240.672 55.8a21.697 21.697 0 0 0-33.313 0 21.698 21.698 0 0 0-23.55 23.55 20.77 20.77 0 0 0-3.2 3.297c-22.195-41.398-71.082-60.656-115.547-45.52C20.599 52.27-6.386 97.356 1.29 143.696c7.676 46.34 47.758 80.32 94.727 80.313zm99.726-133.281a8 8 0 0 0 4.711-4.473 8.015 8.015 0 0 0-.164-6.492 5.606 5.606 0 0 1 1.078-6.403 5.606 5.606 0 0 1 6.403-1.078 8.015 8.015 0 0 0 6.492.164 8 8 0 0 0 4.472-4.71 5.602 5.602 0 0 1 10.563 0 8 8 0 0 0 4.473 4.71c2.09.864 4.449.805 6.496-.164a5.601 5.601 0 0 1 6.398 1.078 5.606 5.606 0 0 1 1.078 6.403 8.015 8.015 0 0 0-.164 6.492 8 8 0 0 0 4.711 4.473 5.602 5.602 0 0 1 0 10.562 8 8 0 0 0-4.71 4.473 8.024 8.024 0 0 0 .163 6.496 5.382 5.382 0 0 1-1.101 6.398 5.447 5.447 0 0 1-6.403 1.106 7.984 7.984 0 0 0-6.492-.164 7.982 7.982 0 0 0-4.473 4.707 5.602 5.602 0 0 1-10.563 0 7.98 7.98 0 0 0-4.48-4.711 8.156 8.156 0 0 0-3.062-.61 7.834 7.834 0 0 0-3.426.801 5.608 5.608 0 0 1-6.398-1.082 5.601 5.601 0 0 1-1.078-6.398 8.015 8.015 0 0 0 .164-6.493 7.995 7.995 0 0 0-4.711-4.476 5.598 5.598 0 0 1 0-10.559zm-99.726-42.72c44.183 0 80 35.817 80 80 0 44.184-35.817 80-80 80s-80-35.816-80-80c.047-44.163 35.836-79.952 80-80zm0 0" fill="#0098ff" opacity="1" data-original="#000000" class=""></path><path d="M58.36 173.664a8.004 8.004 0 0 0 11.312 0l80-80-11.313-11.312-74.343 74.343-18.344-18.343-11.313 11.312zm0 0" fill="#0098ff" opacity="1" data-original="#000000" class=""></path></g></svg>