<svg xmlns="http://www.w3.org/2000/svg" version="1.1" xmlns:xlink="http://www.w3.org/1999/xlink" width="512" height="512" x="0" y="0" viewBox="0 0 64 64" style="enable-background:new 0 0 512 512" xml:space="preserve" class=""><g><g data-name="Passport travel"><path d="M57 8h-4a1 1 0 0 0 0 2h4a1 1 0 0 0 0-2ZM33 8h-4a1 1 0 0 0 0 2h4a1 1 0 0 0 0-2ZM49 8h-4a1 1 0 0 0 0 2h4a1 1 0 0 0 0-2ZM41 8h-4a1 1 0 0 0 0 2h4a1 1 0 0 0 0-2ZM29 53a1 1 0 0 0 0-2H17a1 1 0 0 0 0 2ZM33 55H13a1 1 0 0 0 0 2h20a1 1 0 0 0 0-2ZM35.79 32.71a13.25 13.25 0 0 0-1.12-3.41.09.09 0 0 1 0-.05v-.07A13 13 0 0 0 23 22a12.74 12.74 0 0 0-3.4.47A13 13 0 0 0 10.17 33a13.16 13.16 0 0 0-.17 2 13 13 0 0 0 26 0 12.5 12.5 0 0 0-.19-2.13 1 1 0 0 0-.02-.16Zm-3.5-3.57a3.35 3.35 0 0 1-3.6-.66l-.73-.7a5.37 5.37 0 0 0-3.69-1.47 3.33 3.33 0 0 1-2.3-.91 3 3 0 0 1-.77-1.24A11.14 11.14 0 0 1 23 24a11 11 0 0 1 9.29 5.14ZM15 27.47V29a2.4 2.4 0 0 0 2 2.34l.87.17a.42.42 0 0 1 .35.3.36.36 0 0 1-.13.37L16 33.8a.45.45 0 0 1-.3.1.44.44 0 0 1-.43-.28A2.48 2.48 0 0 0 12.86 32h-.43A10.93 10.93 0 0 1 15 27.47ZM13.19 40l1.19.38a2.71 2.71 0 0 0 .88.13 2.82 2.82 0 0 0 2.31-1.16.9.9 0 0 1 .67-.41.68.68 0 0 1 .57.19l2 1.89a.69.69 0 0 1 .23.51v4.33A11 11 0 0 1 13.19 40Zm9-.42-2-1.89A2.67 2.67 0 0 0 18 36.9a2.92 2.92 0 0 0-2.11 1.24.81.81 0 0 1-.67.32 1.09 1.09 0 0 1-.27 0l-2.67-.86A10.9 10.9 0 0 1 12 35c0-.34 0-.67.05-1h.81a.56.56 0 0 1 .51.25 2.45 2.45 0 0 0 2.33 1.65 2.39 2.39 0 0 0 1.55-.55l2.06-1.63a2.35 2.35 0 0 0 .82-2.41 2.39 2.39 0 0 0-1.91-1.78l-.87-.17A.4.4 0 0 1 17 29v-3a1 1 0 0 0 0-.18 10.73 10.73 0 0 1 2.27-1.14 5.07 5.07 0 0 0 1.31 2.18 5.37 5.37 0 0 0 3.69 1.46 3.35 3.35 0 0 1 2.31.91l.73.7A5.32 5.32 0 0 0 31 31.41a5.42 5.42 0 0 0 2-.4l.2-.09a12.14 12.14 0 0 1 .47 1.48l-2.24 1.22a1.38 1.38 0 0 1-1.16.1 3.44 3.44 0 0 0-4.14 1.74l-1.71 4.23a3.14 3.14 0 0 0-.34 1.86l.49 4.32A10.31 10.31 0 0 1 23 46v-4.52a2.7 2.7 0 0 0-.84-1.95Zm4.38 5.87-.47-4.07a1.38 1.38 0 0 1 .18-.8L28 36.3a1.45 1.45 0 0 1 1.72-.68 3.35 3.35 0 0 0 2.73-.25l1.55-.86V35a11 11 0 0 1-7.46 10.4Z" fill="#0098ff" opacity="1" data-original="#000000" class=""></path><path d="M62 18a1 1 0 0 0 1-1V2a1 1 0 0 0-1.41-.91L57.5 2.91l-4.1-1.82a1 1 0 0 0-.82 0l-4.09 1.82-4.09-1.82a1 1 0 0 0-.7-.09l-6.15 1.93-4.14-1.84a1 1 0 0 0-.82 0L28.5 2.91l-4.09-1.82A1 1 0 0 0 23 2v6H6a5 5 0 0 0-5 5v45a5 5 0 0 0 5 5h38a1 1 0 0 0 1-1v-5h17a1 1 0 0 0 1-1V42a1 1 0 0 0-1-1 2 2 0 0 1 0-4 1 1 0 0 0 1-1V23a1 1 0 0 0-1-1 2 2 0 0 1 0-4ZM3.87 10.88A3 3 0 0 1 6 10h17v2H7a1 1 0 0 0 0 2h36v2H6a3 3 0 0 1-2.13-5.12ZM45 18h8v4h-8Zm-2 43H6a3 3 0 0 1-3-3V17l.12.08.26.16a5.21 5.21 0 0 0 .52.28l.3.13a5.8 5.8 0 0 0 .59.19l.28.07A5.64 5.64 0 0 0 6 18h37v43Zm18-37.13v11.26a4 4 0 0 0 0 7.74V55H45v-6h12a1 1 0 0 0 0-2H45v-7h9a1 1 0 0 0 0-2h-9v-2h9a1 1 0 0 0 0-2h-9v-2h9a1 1 0 0 0 0-2h-9v-2h9a1 1 0 0 0 0-2h-9v-2h9a1 1 0 0 0 1-1v-6a1 1 0 0 0-1-1h-9v-3a1 1 0 0 0-1-1H25V3.54l3.09 1.37a1 1 0 0 0 .82 0L33 3.09l4.08 1.82a1 1 0 0 0 .7 0l6.15-1.89 4.15 1.84a1 1 0 0 0 .82 0L53 3.09l4.1 1.82a1 1 0 0 0 .82 0L61 3.54v12.59a4 4 0 0 0 0 7.74Z" fill="#0098ff" opacity="1" data-original="#000000" class=""></path></g></g></svg>