<svg xmlns="http://www.w3.org/2000/svg" version="1.1" xmlns:xlink="http://www.w3.org/1999/xlink" width="512" height="512" x="0" y="0" viewBox="0 0 64 64" style="enable-background:new 0 0 512 512" xml:space="preserve" class=""><g><g data-name="Ticket-Airplane-Flight-Travel-Boarding Pass-Smartphone"><path d="M54.62 29A3.985 3.985 0 0 0 52 22h-2V9a7.008 7.008 0 0 0-7-7H21a7.008 7.008 0 0 0-7 7v5.56a3.906 3.906 0 0 0-2-.56H9a1 1 0 0 0-1 1v31.59l-6.71 6.7 1.42 1.42 7-7A1.033 1.033 0 0 0 10 47V16h2a2.006 2.006 0 0 1 2 2v8a1 1 0 0 0 .14.51l1.01 1.68A13.013 13.013 0 0 1 17 34.88v1.45a9.92 9.92 0 0 1-1.43 5.15l1.72 1.04A12.047 12.047 0 0 0 19 36.33v-1.45a14.993 14.993 0 0 0-2.14-7.72L16 25.72V9a5 5 0 0 1 5-5h22a5 5 0 0 1 5 5v13a3.985 3.985 0 0 0-2.62 7 3.951 3.951 0 0 0 0 6 3.951 3.951 0 0 0 0 6A3.985 3.985 0 0 0 48 48v1a5 5 0 0 1-5 5H21a5 5 0 0 1-5-5v-5h-2v5a7.008 7.008 0 0 0 7 7h12.59l-5.3 5.29 1.42 1.42 6.7-6.71H43a7.008 7.008 0 0 0 7-7v-1h2a3.985 3.985 0 0 0 2.62-7 3.951 3.951 0 0 0 0-6 3.951 3.951 0 0 0 0-6zM52 46h-4a2 2 0 0 1 0-4h4a2 2 0 0 1 0 4zm0-6h-4a2 2 0 0 1 0-4h4a2 2 0 0 1 0 4zm0-6h-4a2 2 0 0 1 0-4h4a2 2 0 0 1 0 4zm0-6h-4a2 2 0 0 1 0-4h4a2 2 0 0 1 0 4z" fill="#0098ff" opacity="1" data-original="#000000" class=""></path><path d="M25 6h2v2h-2zM29 6h6v2h-6zM30 46a3 3 0 0 0 0 6h4a3 3 0 0 0 0-6zm5 3a1 1 0 0 1-1 1h-4a1 1 0 0 1 0-2h4a1 1 0 0 1 1 1zM40.71 20.29l-2-2A1.033 1.033 0 0 0 38 18h-3.46l-3.71-5.55A1 1 0 0 0 30 12h-2a.983.983 0 0 0-.81.42 1 1 0 0 0-.14.9L28.61 18h-.2l-1.7-1.71A1.033 1.033 0 0 0 26 16h-2a1 1 0 0 0-1 1v6a1 1 0 0 0 1 1h4.61l-1.56 4.68a1 1 0 0 0 .14.9.983.983 0 0 0 .81.42h2a1 1 0 0 0 .83-.45L34.54 24H40a1 1 0 0 0 1-1v-2a1.033 1.033 0 0 0-.29-.71zM29.46 14l2.67 4h-1.41l-1.33-4zm0 14h-.07l1.33-4h1.41zM39 22H25v-4h.59l1.7 1.71A1.033 1.033 0 0 0 28 20h9.59L39 21.41zM24 32h16v2H24zM24 36h8v2h-8zM24 40h13v2H24z" fill="#0098ff" opacity="1" data-original="#000000" class=""></path></g></g></svg>