<svg xmlns="http://www.w3.org/2000/svg" version="1.1" xmlns:xlink="http://www.w3.org/1999/xlink" width="512" height="512" x="0" y="0" viewBox="0 0 512 512" style="enable-background:new 0 0 512 512" xml:space="preserve" class=""><g><path d="M256 234.557c-19.481 0-34.548 8.263-42.423 23.268-9.146 17.427-6.912 42.088 5.433 59.972 9.313 13.494 22.752 21.189 36.955 21.188.204 0 .409-.001.614-.004 14.623-.228 28.265-8.504 37.426-22.705 11.762-18.231 13.405-41.968 4.09-59.063-7.961-14.609-22.91-22.655-42.095-22.655zm26.241 74.13c-6.582 10.202-16.015 16.142-25.881 16.296-.137.002-.271.003-.407.003-9.658 0-18.674-5.364-25.422-15.141-9.363-13.565-11.279-32.706-4.558-45.514 5.416-10.319 15.799-15.773 30.026-15.773 14.022 0 24.328 5.309 29.802 15.354 6.828 12.53 5.363 30.942-3.561 44.776zM109.072 117.26a7 7 0 0 1 7-7h8.701a7 7 0 1 1 0 14h-8.701a7 7 0 0 1-7-7zm1.052 12.948v8.701a7 7 0 1 1-14 0v-8.701a7 7 0 1 1 14 0zM74.475 117.26a7 7 0 0 1 7-7h8.702a7 7 0 1 1 0 14h-8.702a7 7 0 0 1-7-7zm21.649-12.948V95.61a7 7 0 1 1 14 0v8.702a7 7 0 1 1-14 0zm319.752 25.895v8.702a7 7 0 1 1-14 0v-8.702a7 7 0 1 1 14 0zm-35.649-12.947a7 7 0 0 1 7-7h8.701a7 7 0 1 1 0 14h-8.701a7 7 0 0 1-7-7zm21.649-12.948V95.61a7 7 0 1 1 14 0v8.702a7 7 0 1 1-14 0zm12.947 12.948a7 7 0 0 1 7-7h8.701a7 7 0 1 1 0 14h-8.701a7 7 0 0 1-7-7zM276.282 64.126c15.12-25.417 37.271-41.63 62.372-45.651a7 7 0 1 1 2.215 13.823c-21.233 3.402-39.406 16.882-52.556 38.985a6.994 6.994 0 0 1-9.594 2.437 7 7 0 0 1-2.437-9.594zM345.84 59.1a7 7 0 0 1 2.268 13.815c-12.513 2.055-20.653 8.539-29.731 18.334a6.982 6.982 0 0 1-5.136 2.242 7 7 0 0 1-5.132-11.759c9.332-10.069 20.361-19.78 37.731-22.632zM165.326 24.279a7 7 0 0 1 8.02-5.804c25.102 4.021 47.252 20.234 62.371 45.651a6.999 6.999 0 0 1-2.438 9.595 6.994 6.994 0 0 1-9.593-2.437c-13.148-22.102-31.321-35.583-52.555-38.985a7 7 0 0 1-5.805-8.019zM249 52.849V11.627a7 7 0 1 1 14 0V52.85a7 7 0 1 1-14 0zm-90.882 12.023a7.006 7.006 0 0 1 8.041-5.773c17.368 2.852 28.399 12.563 37.732 22.632a7 7 0 1 1-10.268 9.516c-9.079-9.796-17.221-16.28-29.732-18.334a7 7 0 0 1-5.773-8.042zm42.231 54.493c-4.528.567-8.219 3.617-9.63 7.958s-.219 8.977 3.109 12.098l23.213 21.772-5.98 31.254c-.86 4.482.899 8.934 4.595 11.62 3.689 2.679 8.466 2.978 12.465.778L256 189.496l27.88 15.349a11.652 11.652 0 0 0 5.632 1.463c2.399 0 4.784-.754 6.833-2.244 3.691-2.682 5.452-7.132 4.595-11.615l-5.982-31.258 23.212-21.771c3.329-3.122 4.521-7.758 3.11-12.099s-5.101-7.39-9.626-7.958l-31.577-3.969-13.532-28.805c-1.94-4.129-5.98-6.695-10.544-6.695s-8.603 2.565-10.545 6.695l-13.532 28.805-31.573 3.969zm42.606 5.472 13.044-27.766 13.044 27.766a7.005 7.005 0 0 0 5.463 3.969l30.437 3.826-22.375 20.985a7 7 0 0 0-2.086 6.421l5.767 30.13-26.873-14.795a7.001 7.001 0 0 0-6.752 0l-26.873 14.795 5.766-30.13a7 7 0 0 0-2.086-6.421l-22.375-20.986 30.438-3.826a7 7 0 0 0 5.463-3.969zM412.5 493.373h-78.718a17.26 17.26 0 0 0 .323-3.292v-85.958c0-5.937 1.934-10.964 5.911-15.371.097-.107.19-.218.28-.331l37.283-46.838c5.625-6.277 9.083-12.705 10.876-20.209l14.764-61.786c4.953-18.634-3.525-30.281-14.142-33.562-10.288-3.182-24.088 1.601-29.422 16.796l-20.499 60.44c-.712 2.102-1.687 3.669-3.258 5.241l-29.117 29.117c-2.678 2.678-5.82 3.979-9.606 3.979h-82.354c-3.787 0-6.929-1.301-9.606-3.979l-29.117-29.117c-1.571-1.572-2.546-3.14-3.26-5.243l-20.522-60.508c-5.31-15.123-19.109-19.908-29.396-16.726-10.616 3.28-19.095 14.928-14.142 33.562l14.763 61.785c1.795 7.508 5.253 13.935 10.878 20.21L171.7 388.42c.09.113.184.224.28.331 3.978 4.406 5.911 9.434 5.911 15.371v85.958c0 1.127.116 2.225.323 3.292H99.497a7 7 0 1 0 0 14h313.002a7 7 0 1 0 0-14zm-217.316 0a3.296 3.296 0 0 1-3.292-3.292v-85.958c0-9.352-3.151-17.621-9.367-24.583l-37.284-46.84a7.411 7.411 0 0 0-.28-.331c-4.136-4.581-6.542-8.975-7.802-14.25l-14.784-61.874-.047-.185c-2.285-8.527-.43-15.066 4.726-16.66 4.147-1.28 9.619 1.05 12.03 7.917l20.498 60.437c1.409 4.157 3.513 7.54 6.618 10.646l29.117 29.117c5.285 5.286 12.03 8.08 19.506 8.08h82.354c7.475 0 14.219-2.794 19.505-8.08l29.117-29.117c3.106-3.106 5.21-6.49 6.618-10.646l20.474-60.367c2.436-6.936 7.907-9.27 12.055-7.988 5.156 1.593 7.012 8.132 4.727 16.66l-.047.185-14.785 61.875c-1.259 5.272-3.665 9.667-7.801 14.249-.097.107-.19.217-.28.331l-37.285 46.841c-6.216 6.961-9.367 15.231-9.367 24.582v85.958a3.296 3.296 0 0 1-3.292 3.292h-121.63zM85.738 193.947c-16.208-1.609-29.141-14.542-30.749-30.75a7 7 0 0 0-13.932 0c-1.608 16.208-14.541 29.14-30.749 30.75a7 7 0 0 0 0 13.932c16.208 1.609 29.141 14.541 30.749 30.749a7 7 0 0 0 13.932 0c1.608-16.208 14.541-29.14 30.749-30.749a7.001 7.001 0 0 0 0-13.932zm-37.715 22.745a48.73 48.73 0 0 0-15.779-15.779 48.733 48.733 0 0 0 15.779-15.78 48.733 48.733 0 0 0 15.779 15.78 48.72 48.72 0 0 0-15.779 15.779zm453.668-22.745c-16.208-1.609-29.141-14.542-30.749-30.75a7 7 0 0 0-13.932 0c-1.608 16.208-14.541 29.14-30.749 30.75a7 7 0 0 0 0 13.932c16.208 1.609 29.141 14.541 30.749 30.749a7 7 0 0 0 13.932 0c1.608-16.208 14.541-29.14 30.749-30.749a7.001 7.001 0 0 0 0-13.932zm-37.715 22.745a48.73 48.73 0 0 0-15.779-15.779 48.733 48.733 0 0 0 15.779-15.78 48.733 48.733 0 0 0 15.779 15.78 48.72 48.72 0 0 0-15.779 15.779z" fill="#0098ff" opacity="1" data-original="#000000" class=""></path></g></svg>