<svg xmlns="http://www.w3.org/2000/svg" version="1.1" xmlns:xlink="http://www.w3.org/1999/xlink" width="512" height="512" x="0" y="0" viewBox="0 0 469.17 469.17" style="enable-background:new 0 0 512 512" xml:space="preserve" class=""><g><path d="M154.585 134.152c-53.019 0-96 42.981-96 96s42.981 96 96 96 96-42.981 96-96-42.981-96-96-96zm71.047 60h-34.598c-3.309-16.58-8.477-29.981-13.754-40.32 21.142 6.309 38.497 20.969 48.352 40.32zm-47.047 36c0 7.142-.535 13.703-1.27 20h-45.457c-.738-6.297-1.274-12.859-1.274-20 0-7.145.527-13.705 1.258-20h45.489c.727 6.295 1.254 12.856 1.254 20zm-26.328-79.766c.789-.023 1.531-.234 2.328-.234.805 0 1.55.215 2.351.238 6.004 9.211 13.305 23.782 17.726 43.762H134.51c4.442-20.049 11.77-34.613 17.747-43.766zm-20.367 3.446c-5.258 10.317-10.43 23.733-13.742 40.32h-34.61a79.865 79.865 0 0 1 48.352-40.32zm-57.305 76.32c0-6.946 1.168-13.57 2.84-20h38.293c-.668 6.336-1.133 12.926-1.133 20 0 7.078.477 13.66 1.156 20H77.425c-1.672-6.43-2.84-13.054-2.84-20zm8.953 36h34.649c3.344 16.617 8.519 30.133 13.68 40.313-21.13-6.313-38.477-20.969-48.329-40.313zm73.371 43.766c-.789.024-1.527.234-2.324.234s-1.535-.211-2.328-.234c-5.734-8.82-13.203-23.424-17.726-43.766h40.11c-4.517 20.329-11.978 34.926-17.732 43.766zm20.402-3.453c5.168-10.19 10.34-23.695 13.676-40.313h34.645c-9.852 19.342-27.196 33.997-48.321 40.313zm16.122-56.313c.676-6.34 1.152-12.922 1.152-20 0-7.074-.461-13.664-1.129-20h38.289c1.672 6.43 2.84 13.055 2.84 20 0 6.946-1.168 13.57-2.84 20h-38.312zM74.585 374.152h160v16h-160zM337.688 289.807l8.284-30.908 15.455 4.142-8.285 30.909zM300.418 428.866l28.985-108.178 15.454 4.141-28.985 108.178z" fill="#0098ff" opacity="1" data-original="#000000" class=""></path><path d="M434.858 50.792 249.402 1.098A32.049 32.049 0 0 0 241.101 0c-14.129.001-27.058 9.43-30.89 23.726l-16.726 62.426h-166.9c-8.836 0-16 7.163-16 16v320c0 8.837 7.164 16 16 16h184.801l111.664 29.92a32.038 32.038 0 0 0 8.301 1.098c14.129 0 27.058-9.43 30.89-23.726l95.246-355.461c4.575-17.07-5.558-34.617-22.629-39.191zM26.585 422.152v-320h240c8.824 0 16 7.178 16 16v288c0 8.822-7.176 16-16 16h-240zm415.449-336.31-95.246 355.461c-1.875 6.988-8.222 11.868-15.438 11.868-1.39 0-2.789-.186-4.16-.554l-55.793-14.95c15.37-2.335 27.187-15.49 27.187-31.514V279.309l8.195 2.196 8.285-30.91-15.457-4.141-1.023 3.824V123.129l16.328 4.376 18.922 61.862 13.246 3.55-1.254-57.129 23.402 6.271 10.285 18.137 8.832 2.366-1.519-25.253 13.942-21.111-8.832-2.366-17.973 10.565c-5.824-1.559-14.703-3.939-23.406-6.271l29.652-48.846-13.246-3.55-47.317 44.114c-9.305-2.493-19.457-5.215-24.957-6.687-5.39-10.074-15.886-17.004-28.105-17.004h-56.539l15.617-58.284c1.875-6.987 8.223-11.867 15.438-11.868 1.39 0 2.789.186 4.16.554l185.457 49.694a15.893 15.893 0 0 1 9.715 7.455 15.889 15.889 0 0 1 1.602 12.138z" fill="#0098ff" opacity="1" data-original="#000000" class=""></path><path d="m337.715 232.073 4.093-15.467 15.204 4.023-4.093 15.467zM368.082 240.14l4.093-15.466 15.204 4.023-4.093 15.467zM307.35 224.03l4.092-15.467 15.204 4.023-4.092 15.467z" fill="#0098ff" opacity="1" data-original="#000000" class=""></path></g></svg>