<svg xmlns="http://www.w3.org/2000/svg" version="1.1" xmlns:xlink="http://www.w3.org/1999/xlink" width="512" height="512" x="0" y="0" viewBox="0 0 512 512" style="enable-background:new 0 0 512 512" xml:space="preserve" class=""><g><circle cx="123.871" cy="156.903" r="8.258" fill="#0098ff" opacity="1" data-original="#000000"></circle><circle cx="189.935" cy="156.903" r="8.258" fill="#0098ff" opacity="1" data-original="#000000"></circle><path d="m168.853 199.061-9.365-4.682c3.724-9.257 5.673-19.25 5.673-29.217h-16.516a61.966 61.966 0 0 1-6.516 27.598l-4.567 9.125 23.907 11.949zM173.419 221.019c-3.146 6.293-9.472 10.207-16.516 10.207s-13.37-3.914-16.516-10.207l-.867-1.742-14.774 7.391.867 1.734c5.962 11.933 17.953 19.34 31.29 19.34s25.327-7.407 31.29-19.34l.867-1.742-14.774-7.391zM264.258 140.387v16.516h8.258c9.109 0 16.516 7.407 16.516 16.516s-7.408 16.516-16.516 16.516h-8.258v16.516h8.258c18.217 0 33.032-14.815 33.032-33.032s-14.815-33.032-33.032-33.032z" fill="#0098ff" opacity="1" data-original="#000000"></path><path d="M338.581 181.677c-3.13 0-6.152.421-9.084 1.082.504-3.047.826-6.152.826-9.34 0-29.201-21.785-53.347-49.937-57.204C276.397 51.481 222.621 0 156.903 0 88.601 0 33.032 55.569 33.032 123.871v151.907c0 15.203 3.477 30.249 9.753 44.065C16.574 342.677 0 376.213 0 413.201v40.993C0 486.061 25.939 512 57.806 512h206.451c9.109 0 16.516-7.408 16.516-16.516v-42.62c10.207 6.194 21.785 9.588 33.792 9.588 36.005 0 65.305-29.3 65.305-65.305V222.968c.001-22.768-18.522-41.291-41.289-41.291zm-57.807 66.065v11.52c0 19.522 8.836 37.764 23.907 49.829l-3.221 16.12c-29.721-22.578-65.759-35.295-103.259-36.129v-10.843c21.124-8.828 36.98-26.104 44.552-47.005h29.762c8.869 0 17.251-2.073 24.774-5.657v5.648c-9.107.001-16.515 7.408-16.515 16.517zm-93.448 16.945-5.649 1.875v29.39c-3.567 10.678-13.518 17.854-24.774 17.854s-21.207-7.176-24.774-17.87v-29.374l-5.649-1.883a64.131 64.131 0 0 1-43.9-60.911v-62.043a16.493 16.493 0 0 1 11.297-15.666l27.508-9.175c14.914 9.662 32.429 15.244 50.638 15.244h14.609c12.486 0 24.948 1.536 37.054 4.558l7.54 1.891v65.197a64.146 64.146 0 0 1-43.9 60.913zm126.48-91.268c0 22.767-18.523 41.29-41.29 41.29h-25.592c.487-3.592.818-7.234.818-10.942v-16.136l19.126-6.375-5.227-15.666-13.898 4.625v-38.086h24.774c22.767 0 41.289 18.523 41.289 41.29zM156.903 16.516c56.403 0 102.689 43.759 106.934 99.097h-18.349c-4.567-16.599-15.905-30.703-31.86-38.681l-3.485-1.742-7.391 14.774 3.485 1.742c12.065 6.028 20.554 16.838 23.668 29.514l-2.23-.553a169.314 169.314 0 0 0-41.043-5.054h-14.609c-26.814 0-52.051-14.286-65.85-37.285L92.01 86.826c3.931 6.557 8.687 12.47 13.997 17.771l-17.358 5.789a33.01 33.01 0 0 0-22.586 31.339v6.92c-6.045 0-11.636 1.751-16.516 4.591V123.87c.001-59.193 48.162-107.354 107.356-107.354zM49.548 181.677c0-9.109 7.407-16.516 16.516-16.516v33.032c-9.108.001-16.516-7.407-16.516-16.516zm0 94.101v-65.66c4.881 2.841 10.471 4.591 16.516 4.591h.818c3.84 28.201 22.239 52.455 48.731 63.521v11.371l-.562.041c-21.653 1.544-41.654 8.787-58.773 20.034-4.368-10.751-6.73-22.287-6.73-33.898zm33.033 219.706v-49.548h24.774c13.659 0 24.774 11.115 24.774 24.774s-11.115 24.774-24.774 24.774zm55.857-99.097c9.142 0 18.259 1.932 26.723 5.434v93.663h-24.989c5.244-6.92 8.473-15.443 8.473-24.774 0-22.767-18.523-41.29-41.29-41.29H82.581v-33.032h55.857zm125.82 99.097h-82.581v-93.663c8.465-3.501 17.581-5.434 26.723-5.434h55.858zm-16.516-115.613v-4.839a19.806 19.806 0 0 1 5.838-14.097l-11.677-11.677c-6.887 6.887-10.678 16.037-10.678 25.773v4.839H208.4c-11.991 0-23.998 2.552-34.981 7.399-10.983-4.848-22.99-7.399-34.981-7.399H82.25c-.785-8.431-4.278-16.293-10.347-22.355l-11.677 11.677a19.813 19.813 0 0 1 5.838 14.096v46.129h-4.839c-9.736 0-18.886 3.79-25.773 10.678l11.677 11.677a19.814 19.814 0 0 1 14.097-5.838h4.839v49.548h-8.258c-22.767 0-41.29-18.523-41.29-41.29v-40.993c0-56.056 43.801-103.085 99.708-107.091l2.263-.165c6.986 14.741 21.793 24.378 38.417 24.378 16.756 0 31.653-9.794 38.565-24.716 37.574.297 73.637 13.75 102.326 37.921l-8.052 40.25c-.206 1.049-.198 2.122-.314 3.179l-9.422 4.707c-2.048-6.796-8.291-11.792-15.748-11.792h-16.518zm115.613 17.276c0 26.905-21.884 48.789-48.789 48.789a48.613 48.613 0 0 1-27.062-8.192l-6.73-4.484v-23.511l10.306-5.153c1.767 5.252 4.591 10.116 8.63 14.146l11.677-11.677a19.814 19.814 0 0 1-5.838-14.097v-2.048c0-1.313.132-2.618.388-3.906l17.053-85.273-4.608-3.064a47.283 47.283 0 0 1-21.091-39.416v-11.52c9.109 0 16.516 7.407 16.516 16.516v3.419l10.678 10.678 11.677-11.677-6.028-6.037c-1.164-10.661-7.465-19.745-16.326-24.898v-12.775c0-13.659 11.115-24.774 24.774-24.774s24.774 11.115 24.774 24.774v174.18zM412.903 148.645a42.575 42.575 0 0 0-29.151-40.448l-1.272-.421-5.211 15.674 1.263.421c10.678 3.559 17.854 13.518 17.854 24.774s-7.176 21.215-17.846 24.774l-1.272.421 5.211 15.674 1.28-.429a42.56 42.56 0 0 0 29.144-40.44z" fill="#0098ff" opacity="1" data-original="#000000"></path><path d="M462.452 148.645c0-37.698-25.311-71.267-61.564-81.623l-2.23-.636-4.55 15.88 2.238.636c29.192 8.341 49.59 35.378 49.59 65.742s-20.397 57.402-49.598 65.742l-2.23.636 4.55 15.88 2.221-.636c36.262-10.354 61.573-43.923 61.573-81.621z" fill="#0098ff" opacity="1" data-original="#000000"></path><path d="m442.781 31.009-9.356-5.194-8.019 14.435 9.356 5.194c37.459 20.81 60.722 60.358 60.722 103.201s-23.263 82.391-60.722 103.201l-9.356 5.194 8.019 14.435 9.356-5.194C485.475 242.564 512 197.492 512 148.645s-26.525-93.919-69.219-117.636z" fill="#0098ff" opacity="1" data-original="#000000"></path></g></svg>