<svg xmlns="http://www.w3.org/2000/svg" version="1.1" xmlns:xlink="http://www.w3.org/1999/xlink" width="512" height="512" x="0" y="0" viewBox="0 0 64 64" style="enable-background:new 0 0 512 512" xml:space="preserve" class=""><g><path d="M8.4 60.497h30c3.308 0 6-2.692 6-6v-1.66c-.029-1.323-1.977-1.31-2 0v1.66c0 2.206-1.794 4-4 4h-30c-2.206 0-4-1.794-4-4v-40c0-2.206 1.794-4 4-4h30c2.206 0 4 1.794 4 4v10.26c.02 1.319 1.981 1.309 2 0v-10.26c-.005-3.796-3.34-6.387-7.02-6-.12-3.147-3.345-5.602-6.417-4.86L8.244 8.503C5.008 8.588 2.4 11.24 2.4 14.496v40c0 3.31 2.691 6 6 6zM31.383 5.592c1.866-.451 3.847.998 4 2.902H17.838z" fill="#0098ff" opacity="1" data-original="#000000" class=""></path><path d="m22.08 42.526-11.681.01c-1.31.022-1.316 1.978.001 2l11.68-.01c1.31-.022 1.317-1.978 0-2zM25.14 46.536H10.4c-1.31.02-1.318 1.978 0 2h14.74c1.31-.02 1.318-1.978 0-2zM10.4 53.539c.104 3.956 5.897 3.955 6 0-.104-3.956-5.897-3.955-6 0zm4 0c-.023 1.314-1.977 1.314-2 0 .023-1.314 1.977-1.314 2 0zM19.4 52.539c-1.313.021-1.316 1.978 0 2h6a1 1 0 1 0 0-2zM35.4 54.516c1.313-.02 1.316-1.978 0-2h-6a1 1 0 1 0 0 2zM46.787 24.266l-3.642 3.51-7.798-2.048a2.434 2.434 0 0 0-2.09.418l-3.375 2.576c-1.384.994-1.209 3.289.31 4.061l4.953 2.705-5.44 5.243-6.083-1.38c-.881-.228-1.592.879-1.016 1.582l5.2 6.802a5.287 5.287 0 0 0 4.208 2.071c1.116 0 2.24-.35 3.193-1.075l6.345-4.845 1.305 5.482c.24 1.08 1.267 1.881 2.37 1.868a2.44 2.44 0 0 0 1.472-.496l3.37-2.581a2.396 2.396 0 0 0 .951-1.902l.091-9.67 9.13-6.971a3.394 3.394 0 0 0 1.36-2.74c0-.91-.35-1.77-.988-2.42-3.757-3.825-9.96-3.912-13.826-.19zm-15.635 6.762c-.285-.186-.307-.49-.056-.716l3.374-2.576a.428.428 0 0 1 .368-.074l6.62 1.74a8925.98 8925.98 0 0 1-4.804 4.632l-5.502-3.006zm27.882-3.007-7.899 6.032.005-.529c-.013-1.312-1.966-1.33-2-.015l-.12 12.738a.412.412 0 0 1-.169.325l-3.364 2.576c-.293.187-.584.073-.685-.243l-2.29-9.621c-.325-1.269-2.23-.82-1.945.465l.478 2.008-7.05 5.383a3.294 3.294 0 0 1-4.601-.62l-3.522-4.608 3.917.89a.995.995 0 0 0 .915-.256l6.796-6.552c2.519-2.422 8.116-7.825 10.673-10.287 3.08-2.965 8.022-2.895 11.012.149.6.587.538 1.675-.151 2.165z" fill="#0098ff" opacity="1" data-original="#000000" class=""></path><path d="M35.152 24.073c.289 1.282 2.21.876 1.957-.413C33.188 7.269 9.879 9.719 9.4 26.517c-.082 6.436 4.71 12.393 11.007 13.677.554.133 1.2-.298 1.192-.898.558-.305.592-1.13.132-1.542-1.1-1.024-2.03-2.898-2.622-5.238h3.29v4.81a1 1 0 1 0 2 0v-4.81h2.621a1 1 0 1 0 0-2H24.4v-8h3.673c.2 1.278.327 2.616.327 4.06 0 .553.447.97 1 .97s1-.477 1-1.03c0-1.38-.095-2.72-.279-4H34.7c.183.517.343 1.037.453 1.557zm-16.015-8.776c-.882 1.331-1.598 3.099-2.085 5.22h-4.038a11.957 11.957 0 0 1 6.123-5.22zM11.4 26.517c0-1.37.245-2.71.702-4h4.577c-.371 2.54-.371 5.46 0 8h-4.577a11.94 11.94 0 0 1-.702-4zm7.732 11.2a11.978 11.978 0 0 1-6.12-5.2h4.043c.475 2.073 1.185 3.85 2.077 5.2zm3.268-7.2h-3.673c-.428-2.521-.428-5.48 0-8H22.4v8zm0-10h-3.288c.733-2.872 1.962-4.99 3.288-5.72zm2 0v-5.72c1.326.73 2.554 2.848 3.288 5.72zm5.347 0c-.486-2.122-1.203-3.889-2.085-5.22a11.952 11.952 0 0 1 6.123 5.22z" fill="#0098ff" opacity="1" data-original="#000000" class=""></path><circle cx="20.5" cy="25" r="1" fill="#0098ff" opacity="1" data-original="#000000" class=""></circle></g></svg>