<svg xmlns="http://www.w3.org/2000/svg" version="1.1" xmlns:xlink="http://www.w3.org/1999/xlink" width="512" height="512" x="0" y="0" viewBox="0 0 512 512" style="enable-background:new 0 0 512 512" xml:space="preserve" class=""><g><path d="M341.339 279.611c0 29.597 24.079 53.676 53.676 53.676s53.675-24.079 53.675-53.676c0-29.593-24.078-53.669-53.675-53.669s-53.676 24.077-53.676 53.669zm93.35 0c0 21.877-17.798 39.676-39.675 39.676s-39.676-17.799-39.676-39.676c0-21.873 17.799-39.669 39.676-39.669s39.675 17.796 39.675 39.669zm-39.674 66.574c-59.547 0-107.992 48.442-107.992 107.985 0 11.238 6.271 26.943 36.141 37.941 19.071 7.021 44.587 10.888 71.849 10.888C448.763 502.999 503 487.9 503 454.17c0-59.543-48.442-107.985-107.985-107.985zm-.003 142.814c-53.583 0-93.989-14.973-93.989-34.829 0-51.823 42.165-93.985 93.992-93.985 51.823 0 93.985 42.162 93.985 93.985 0 19.856-40.406 34.829-93.988 34.829zm-83.824-197.807a7.003 7.003 0 0 0 6.175-3.728 7.021 7.021 0 0 0-.922-7.902c-.89-1.019-20.826-24.395-14.016-64.037h79.267c13.055 0 23.676-10.62 23.676-23.675V32.675C405.367 19.62 394.746 9 381.691 9H130.308c-13.055 0-23.675 10.62-23.675 23.675v159.176c0 13.055 10.62 23.675 23.675 23.675h92.514c1.102 7.013 3.905 18.547 11.031 30.609 10.313 17.459 31.952 39.438 76.47 45.004.289.036.577.053.865.053zm-75.08-82.811a6.998 6.998 0 0 0-6.998-6.855h-98.803c-5.335 0-9.675-4.34-9.675-9.675V32.675c0-5.335 4.34-9.675 9.675-9.675h251.384c5.335 0 9.676 4.34 9.676 9.675v159.176c0 5.335-4.341 9.675-9.676 9.675h-85.007a7 7 0 0 0-6.827 5.453c-6.91 30.493.085 53.663 6.903 67.448-58.502-14.614-60.589-63.817-60.652-66.046zm-.885-47.191a7 7 0 0 1-7 7h-85.091a7 7 0 1 1 0-14h85.091a7 7 0 0 1 7 7zm0-48.927a7 7 0 0 1-7 7h-85.091a7 7 0 1 1 0-14h85.091a7 7 0 0 1 7 7zm0-48.928a7 7 0 0 1-7 7h-85.091a7 7 0 1 1 0-14h85.091a7 7 0 0 1 7 7zm140.644 48.928c0-34.741-28.264-63.005-63.004-63.005-34.741 0-63.005 28.264-63.005 63.005s28.264 63.005 63.005 63.005 63.004-28.264 63.004-63.005zm-56.005 43.994v-36.995h13.963c-1.285 17.421-7.233 31.14-13.963 36.995zm0-50.994V68.269c6.729 5.855 12.678 19.574 13.963 36.994zm-14-36.992v36.992h-13.961c1.285-17.418 7.233-31.137 13.961-36.992zm0 50.992v36.993c-6.729-5.856-12.676-19.574-13.961-36.993zm33.076 34.461c4.867-9.227 8.08-21.135 8.921-34.462h13.501c-2.084 14.499-10.536 26.96-22.422 34.462zm22.421-48.461h-13.501c-.841-13.327-4.054-25.235-8.922-34.462 11.888 7.502 20.34 19.963 22.423 34.462zM286.79 70.8c-4.868 9.227-8.082 21.136-8.922 34.463h-13.502c2.084-14.499 10.536-26.961 22.424-34.463zm-22.424 48.463h13.502c.841 13.327 4.054 25.236 8.921 34.462-11.887-7.502-20.339-19.964-22.423-34.462zM193.143 249.3h-34.216v-3.947a7 7 0 0 0-7-7h-17.615c-3.07-11.057-13.226-19.195-25.246-19.195s-22.176 8.139-25.246 19.195H66.204a7 7 0 0 0-7 7v3.947H24.988C16.172 249.3 9 256.472 9 265.288v221.723C9 495.827 16.172 503 24.988 503h168.154c8.816 0 15.988-7.173 15.988-15.989V265.288c.001-8.816-7.171-15.988-15.987-15.988zm-119.939 3.053H89.87a7 7 0 0 0 7-7c0-6.725 5.471-12.195 12.195-12.195s12.195 5.471 12.195 12.195a7 7 0 0 0 7 7h16.666v14.925H73.204zm121.927 234.658c0 1.078-.91 1.989-1.988 1.989H24.988c-1.078 0-1.988-.911-1.988-1.989V265.288c0-1.078.91-1.988 1.988-1.988h34.216v10.978a7 7 0 0 0 7 7h85.723a7 7 0 0 0 7-7V263.3h34.216c1.078 0 1.988.91 1.988 1.988zm-86.066-172.26c-36.573 0-66.327 29.755-66.327 66.328s29.754 66.327 66.327 66.327 66.327-29.754 66.327-66.327-29.753-66.328-66.327-66.328zm0 118.655c-28.854 0-52.327-23.474-52.327-52.327s23.474-52.328 52.327-52.328 52.327 23.475 52.327 52.328-23.473 52.327-52.327 52.327zm28.466-75.823a7 7 0 0 1 .327 9.894l-34.419 36.771a6.999 6.999 0 0 1-5.11 2.217l-.157-.002a7.003 7.003 0 0 1-5.163-2.449l-18.818-22.01a7 7 0 1 1 10.64-9.098l13.734 16.063 29.072-31.06a7.001 7.001 0 0 1 9.894-.326z" fill="#0098ff" opacity="1" data-original="#000000"></path></g></svg>