<svg xmlns="http://www.w3.org/2000/svg" version="1.1" xmlns:xlink="http://www.w3.org/1999/xlink" width="512" height="512" x="0" y="0" viewBox="0 0 100 100" style="enable-background:new 0 0 512 512" xml:space="preserve" fill-rule="evenodd" class=""><g><path d="M50.671 73.039a32.597 32.597 0 0 1-13.489 1.488l-.02-.002a2.066 2.066 0 0 0-1.71.616l-.005.005c-3.207 3.283-10.585 10.89-10.585 10.89a2.085 2.085 0 0 1-3.579-1.437l-.099-15.193a2.084 2.084 0 0 0-.817-1.639l-.014-.011C9.176 59.044 4.607 43.671 10.149 29.867c6.714-16.724 25.743-24.85 42.467-18.136 9.306 3.736 15.95 11.284 18.856 20.127 8.968.832 17.169 6.534 20.752 15.459 4.145 10.323.845 21.801-7.367 28.46a2.081 2.081 0 0 0-.798 1.626l-.071 10.791a2.083 2.083 0 0 1-3.579 1.437s-4.985-5.14-7.521-7.722l-.009-.01a2.062 2.062 0 0 0-1.687-.615 24.887 24.887 0 0 1-20.521-8.245zm17.222-38.632c-2.301-8.249-8.276-15.375-16.829-18.809-14.59-5.858-31.191 1.232-37.048 15.821-4.834 12.04-.851 25.45 8.897 33.05a6.252 6.252 0 0 1 2.438 4.908l.066 10.104c2.35-2.421 5.311-5.468 7.044-7.241a6.235 6.235 0 0 1 5.141-1.858 28.458 28.458 0 0 0 12.993-1.737c7.164-2.734 13.212-8.33 16.291-15.999a28.36 28.36 0 0 0 1.007-18.239zM54.817 71.349c4.233 4.111 10.095 6.258 16.02 5.783a6.22 6.22 0 0 1 5.024 1.857c1.079 1.099 2.6 2.659 3.994 4.092l.037-5.707a6.244 6.244 0 0 1 2.341-4.834c6.83-5.538 9.571-15.085 6.125-23.67-2.783-6.931-8.911-11.524-15.781-12.669a32.477 32.477 0 0 1-1.825 17.997c-3.129 7.796-8.935 13.723-15.935 17.151zM23.958 37.5a5.211 5.211 0 0 1 5.209 5.208 5.211 5.211 0 0 1-5.209 5.209 5.211 5.211 0 0 1-5.208-5.209 5.21 5.21 0 0 1 5.208-5.208zm0 4.167a1.04 1.04 0 1 0 0 2.082 1.04 1.04 0 0 0 0-2.082zm31.25-4.167a5.211 5.211 0 0 1 5.209 5.208 5.211 5.211 0 0 1-5.209 5.209A5.211 5.211 0 0 1 50 42.708a5.21 5.21 0 0 1 5.208-5.208zm0 4.167a1.04 1.04 0 1 0 0 2.082 1.04 1.04 0 0 0 0-2.082zM39.583 37.5a5.211 5.211 0 0 1 5.209 5.208 5.211 5.211 0 0 1-5.209 5.209 5.211 5.211 0 0 1-5.208-5.209 5.21 5.21 0 0 1 5.208-5.208zm0 4.167a1.04 1.04 0 1 0 0 2.082 1.04 1.04 0 0 0 0-2.082z" fill="#0098ff" opacity="1" data-original="#000000" class=""></path></g></svg>