<svg xmlns="http://www.w3.org/2000/svg" version="1.1" xmlns:xlink="http://www.w3.org/1999/xlink" width="512" height="512" x="0" y="0" viewBox="0 0 518.935 518.935" style="enable-background:new 0 0 512 512" xml:space="preserve" class=""><g><path d="M188.754 118.844a159.94 159.94 0 0 1-30.68-2.73 8.37 8.37 0 0 1-6.555-8.169C151.52 48.329 199.848 0 259.465 0S367.41 48.329 367.41 107.945a8.372 8.372 0 0 1-8.279 8.369l-.646.004c-18.667 0-53.638-8.663-70.988-39.764-27.672 35.429-70.081 42.29-98.743 42.29zm-20.227-17.895c20.857 2.938 83.46 6.812 113.331-46.037a8.364 8.364 0 0 1 15.291 1.696c7.634 23.443 28.517 40.071 53.074 42.261-5.053-50.123-49.781-86.659-99.904-81.606-43.923 4.428-78.371 39.674-81.792 83.686zM411.338 280.516a8.38 8.38 0 0 1-7.829-5.41c-10.224-26.733-35.837-44.424-64.458-44.521h-32.895a8.37 8.37 0 0 1 0-16.738h32.895c35.572.124 67.406 22.11 80.117 55.333a8.37 8.37 0 0 1-4.871 10.788 8.221 8.221 0 0 1-2.959.548zM106.283 284.28a8.375 8.375 0 0 1-7.969-10.923c11.279-35.517 44.299-59.609 81.564-59.51h33.018a8.37 8.37 0 0 1 0 16.738h-33.018c-29.981-.081-56.548 19.299-65.627 47.872a8.367 8.367 0 0 1-7.968 5.823z" fill="#0098ff" opacity="1" data-original="#000000" class=""></path><path d="M259.522 256.235h-.008a63.246 63.246 0 0 1-53.695-29.553 8.356 8.356 0 0 1-1.299-4.479V200.84a107.873 107.873 0 0 1-53-92.895 8.38 8.38 0 0 1 10.167-8.173c3.441.756 84.767 17.755 120.172-44.86a8.364 8.364 0 0 1 15.291 1.696c12.937 42.723 59.743 42.984 61.827 42.968h.041a8.384 8.384 0 0 1 8.393 8.369 107.993 107.993 0 0 1-52.877 92.887v21.372a8.36 8.36 0 0 1-1.3 4.479 63.278 63.278 0 0 1-53.712 29.552zm-38.265-36.565a46.572 46.572 0 0 0 38.265 19.827 46.6 46.6 0 0 0 38.273-19.827v-23.721a8.367 8.367 0 0 1 4.421-7.38 91.344 91.344 0 0 0 48.113-72.737 82.119 82.119 0 0 1-62.832-39.278c-35.306 45.191-94.558 43.892-118.717 41.182a91.257 91.257 0 0 0 48.039 70.825 8.375 8.375 0 0 1 4.438 7.388zM259.465 518.935a8.364 8.364 0 0 1-8.369-8.359V317.081a8.362 8.362 0 0 1 4.553-7.445 397.768 397.768 0 0 1 190.947-46.862 8.373 8.373 0 0 1 8.189 8.369v81.87a8.37 8.37 0 0 1-16.738 0v-73.579a381.925 381.925 0 0 0-170.214 42.792v174.851a395.39 395.39 0 0 1 170.213-40.896v-57.626a8.37 8.37 0 0 1 16.738 0v66.072a8.374 8.374 0 0 1-2.517 5.982 9.053 9.053 0 0 1-6.032 2.386 380.873 380.873 0 0 0-182.954 45.015 8.333 8.333 0 0 1-3.816.925z" fill="#0098ff" opacity="1" data-original="#000000" class=""></path><path d="M320.286 374.723a8.369 8.369 0 0 1-4.226-15.598 116.707 116.707 0 0 1 70.163-17.118 8.37 8.37 0 0 1 7.576 9.092 8.46 8.46 0 0 1-9.096 7.576 100.102 100.102 0 0 0-60.208 14.907 8.327 8.327 0 0 1-4.209 1.141zM320.286 432.774a8.368 8.368 0 0 1-4.225-15.597 116.85 116.85 0 0 1 70.163-17.122 8.371 8.371 0 1 1-1.52 16.672 100.448 100.448 0 0 0-60.208 14.907 8.342 8.342 0 0 1-4.21 1.14zM259.465 518.935a8.411 8.411 0 0 1-3.67-.846 375.4 375.4 0 0 0-182.889-40.381 8.706 8.706 0 0 1-6.17-2.305 8.391 8.391 0 0 1-2.591-6.056v-70.792a8.37 8.37 0 0 1 16.738 0v62.129a389.501 389.501 0 0 1 170.213 36.696V322.345a374.959 374.959 0 0 0-170.213-38.404v69.072a8.37 8.37 0 0 1-16.738 0v-77.155a8.37 8.37 0 0 1 7.977-8.361 391.366 391.366 0 0 1 191.013 42.061 8.37 8.37 0 0 1 4.699 7.523v193.485a8.363 8.363 0 0 1-8.357 8.369h-.012z" fill="#0098ff" opacity="1" data-original="#000000" class=""></path><path d="M198.643 376.26a8.311 8.311 0 0 1-4.07-1.062 98.863 98.863 0 0 0-60.135-13.366 8.235 8.235 0 0 1-9.285-7.343 8.366 8.366 0 0 1 7.339-9.28 114.86 114.86 0 0 1 70.236 15.377 8.368 8.368 0 0 1-4.085 15.674zM198.643 434.311a8.301 8.301 0 0 1-4.07-1.063 98.834 98.834 0 0 0-60.135-13.366 8.26 8.26 0 0 1-9.259-7.123c-.01-.073-.018-.147-.026-.22a8.366 8.366 0 0 1 7.339-9.28 114.983 114.983 0 0 1 70.236 15.377 8.368 8.368 0 0 1-4.085 15.675zM70.413 407.026c-16.855.001-30.519-13.661-30.521-30.516-.001-13.813 9.276-25.904 22.618-29.48l20.105-5.39c16.284-4.346 33.008 5.332 37.354 21.616 4.34 16.261-5.304 32.965-21.556 37.338l-20.105 5.386a30.453 30.453 0 0 1-7.895 1.046zm16.534-49.22-20.105 5.39c-7.347 1.982-11.697 9.545-9.715 16.892 1.977 7.331 9.513 11.68 16.85 9.726l20.105-5.386c7.352-1.97 11.714-9.527 9.744-16.879-1.971-7.351-9.528-11.713-16.879-9.743zM448.508 407.026a30.361 30.361 0 0 1-7.887-1.046l-20.105-5.386c-16.28-4.362-25.941-21.096-21.578-37.376s21.096-25.94 37.376-21.578l20.105 5.39c16.28 4.365 25.939 21.101 21.574 37.381-3.577 13.343-15.671 22.619-29.485 22.615zm-20.089-49.69c-7.611-.001-13.782 6.168-13.784 13.779a13.783 13.783 0 0 0 10.212 13.314l20.105 5.386c7.354 1.958 14.902-2.417 16.86-9.77 1.953-7.336-2.396-14.87-9.725-16.848l-20.105-5.39a13.687 13.687 0 0 0-3.563-.471z" fill="#0098ff" opacity="1" data-original="#000000" class=""></path></g></svg>