<svg xmlns="http://www.w3.org/2000/svg" version="1.1" xmlns:xlink="http://www.w3.org/1999/xlink" width="512" height="512" x="0" y="0" viewBox="0 0 60 60" style="enable-background:new 0 0 512 512" xml:space="preserve" class=""><g><g fill="#000" fill-rule="nonzero"><path d="M5 52h24a1 1 0 0 0 0-2H5a3 3 0 0 1-3-3V27h32.34a1 1 0 0 0 0-2H2V5a3 3 0 0 1 3-3h31a3 3 0 0 1 3 3v14a1 1 0 0 0 2 0V5a5.006 5.006 0 0 0-5-5H5a5.006 5.006 0 0 0-5 5v42a5.006 5.006 0 0 0 5 5z" fill="#0098ff" opacity="1" data-original="#000000" class=""></path><path d="M8 29a4 4 0 0 0-4 4v11a4 4 0 0 0 4 4h11a4 4 0 0 0 4-4V33a4 4 0 0 0-4-4zm3 8.5a2.5 2.5 0 1 1 5 0 2.5 2.5 0 0 1-5 0zM8.217 46a5.489 5.489 0 0 1 10.566 0zM21 33v11c0 .418-.134.824-.379 1.162A7.442 7.442 0 0 0 16.66 40.7a4.5 4.5 0 1 0-6.32 0 7.442 7.442 0 0 0-3.961 4.464A1.984 1.984 0 0 1 6 44V33a2 2 0 0 1 2-2h11a2 2 0 0 1 2 2zM58 54.184V38a4 4 0 0 0-4-4h-4.277l2.666-4.666a2.982 2.982 0 0 0 .181-2.6l-1.138-2.846A2.987 2.987 0 0 0 48.646 22h-7.292a2.987 2.987 0 0 0-2.786 1.886l-1.138 2.846a2.982 2.982 0 0 0 .181 2.6L40.277 34H36a4 4 0 0 0-4 4v16.184A2.993 2.993 0 0 0 33 60h24a2.993 2.993 0 0 0 1-5.816zM41.354 24h7.292a.994.994 0 0 1 .928.629L50.523 27H39.477l.949-2.371c.15-.38.519-.63.928-.629zm-1.631 5h10.554l-2.857 5h-4.84zM34 38a2 2 0 0 1 2-2h18a2 2 0 0 1 2 2v16h-2V39a1 1 0 0 0-1-1H37a1 1 0 0 0-1 1v15h-2zm4 16v-2h14v2zm14-14v5h-4v-5zm-9 7h9v3H38v-3zm3-2h-2v-5h2zm-4 0h-4v-5h4zm15 13H33a1 1 0 0 1 0-2h24a1 1 0 0 1 0 2zM35 5H23a1 1 0 0 0 0 2h12a1 1 0 0 0 0-2zM35 10H23a1 1 0 0 0 0 2h12a1 1 0 0 0 0-2zM36 16a1 1 0 0 0-1-1H23a1 1 0 0 0 0 2h12a1 1 0 0 0 1-1zM23 20a1 1 0 0 0 0 2h6a1 1 0 0 0 0-2zM18 5H6a1 1 0 1 0 0 2h12a1 1 0 0 0 0-2zM18 10H6a1 1 0 0 0 0 2h12a1 1 0 0 0 0-2zM18 20H6a1 1 0 0 0 0 2h12a1 1 0 0 0 0-2z" fill="#0098ff" opacity="1" data-original="#000000" class=""></path></g></g></svg>