<svg xmlns="http://www.w3.org/2000/svg" version="1.1" xmlns:xlink="http://www.w3.org/1999/xlink" width="512" height="512" x="0" y="0" viewBox="0 0 64 64" style="enable-background:new 0 0 512 512" xml:space="preserve" class=""><g><path d="m58 47.41 1.29 1.3A1 1 0 0 0 60 49h.1a1 1 0 0 0 .73-.45l2-3a1 1 0 0 0-.12-1.26L58 39.59V32a1 1 0 0 0-1-1h-5a1 1 0 0 0-1 1v.59l-2.29-2.3a1 1 0 0 0-1.42 0L44 33.59V8a1 1 0 0 0-1-1H21a1 1 0 0 0-1 1v12H4a2 2 0 0 0-2 2v39H1v2h62v-2h-5zM15 61H9v-3.35A2.66 2.66 0 0 1 11.66 55h.68A2.66 2.66 0 0 1 15 57.65zm5 0h-3v-3.35A4.66 4.66 0 0 0 12.34 53h-.68A4.66 4.66 0 0 0 7 57.65V61H4V22h16zm33-28h3v4.59l-3-3zm-5-.59 12.71 12.72-.87 1.3-11.13-11.14a1 1 0 0 0-1.42 0L36.16 46.43l-.87-1.3zM31 61h-2v-6h2zm4 0h-2v-6h2zm3 0h-1v-7a1 1 0 0 0-1-1h-8a1 1 0 0 0-1 1v7h-5V9h20v26.59l-8.71 8.7a1 1 0 0 0-.12 1.26l2 3a1 1 0 0 0 1.54.16l1.29-1.3zm12 0h-4v-6a1 1 0 0 1 1-1h2a1 1 0 0 1 1 1zm6 0h-4v-6a3 3 0 0 0-3-3h-2a3 3 0 0 0-3 3v6h-4V45.41l8-8 8 8z" fill="#0098ff" opacity="1" data-original="#000000"></path><path d="M25 17h5a1 1 0 0 0 1-1v-4a1 1 0 0 0-1-1h-5a1 1 0 0 0-1 1v4a1 1 0 0 0 1 1zm1-4h3v2h-3zM34 17h5a1 1 0 0 0 1-1v-4a1 1 0 0 0-1-1h-5a1 1 0 0 0-1 1v4a1 1 0 0 0 1 1zm1-4h3v2h-3zM25 27h5a1 1 0 0 0 1-1v-4a1 1 0 0 0-1-1h-5a1 1 0 0 0-1 1v4a1 1 0 0 0 1 1zm1-4h3v2h-3zM34 27h5a1 1 0 0 0 1-1v-4a1 1 0 0 0-1-1h-5a1 1 0 0 0-1 1v4a1 1 0 0 0 1 1zm1-4h3v2h-3zM25 37h5a1 1 0 0 0 1-1v-4a1 1 0 0 0-1-1h-5a1 1 0 0 0-1 1v4a1 1 0 0 0 1 1zm1-4h3v2h-3zM34 37h5a1 1 0 0 0 1-1v-4a1 1 0 0 0-1-1h-5a1 1 0 0 0-1 1v4a1 1 0 0 0 1 1zm1-4h3v2h-3zM31 46v-4a1 1 0 0 0-1-1h-5a1 1 0 0 0-1 1v4a1 1 0 0 0 1 1h5a1 1 0 0 0 1-1zm-2-1h-3v-2h3zM8 34h8a2 2 0 0 0 2-2v-4a2 2 0 0 0-2-2H8a2 2 0 0 0-2 2v4a2 2 0 0 0 2 2zm5-6h3v4h-3zm-5 0h3v4H8zM8 46h8a2 2 0 0 0 2-2v-4a2 2 0 0 0-2-2H8a2 2 0 0 0-2 2v4a2 2 0 0 0 2 2zm5-6h3v4h-3zm-5 0h3v4H8zM55 13a4 4 0 1 0-4-4 4 4 0 0 0 4 4zm0-6a2 2 0 1 1-2 2 2 2 0 0 1 2-2zM54 14h2v3h-2zM54 1h2v3h-2zM60 8h3v2h-3zM47 8h3v2h-3zM48.63 13.956l2.121-2.121 1.415 1.414-2.121 2.12zM57.82 4.757l2.121-2.12 1.414 1.413-2.12 2.121zM57.825 13.244l1.414-1.414 2.12 2.121-1.413 1.414zM48.636 4.065 50.05 2.65l2.121 2.12-1.414 1.415zM27 50h10v2H27z" fill="#0098ff" opacity="1" data-original="#000000"></path></g></svg>