<svg xmlns="http://www.w3.org/2000/svg" version="1.1" xmlns:xlink="http://www.w3.org/1999/xlink" width="512" height="512" x="0" y="0" viewBox="0 0 512 512" style="enable-background:new 0 0 512 512" xml:space="preserve" class=""><g><path d="M479.652 393.074h-43.4v-54.122a58.8 58.8 0 0 0-40.732-56.575l-88.782-29.6v-28.405a8.106 8.106 0 0 0-.1-1.205 83.361 83.361 0 0 0 27.741-39.16h3.279a30.253 30.253 0 0 0 20.743-52.3 8.049 8.049 0 0 0 .472-1.451 272.991 272.991 0 0 0 3.479-19.009c.289-1.962.574-3.8.844-5.54 2.511-16.19 4.028-25.961-5.685-44.247a115.839 115.839 0 0 0-211.943 17.06 7.971 7.971 0 0 0-.32 1.283c-2.98 18.183-.271 37.2 8.023 56.539a30.242 30.242 0 0 0 22.772 47.593 84.179 84.179 0 0 0 28.257 39.589c.316.244.642.47.961.708v28.549l-88.782 29.6a58.8 58.8 0 0 0-40.731 56.575v54.122H54.239V306.1a19.3 19.3 0 0 1 10-17.322l61.739-35.645a21.806 21.806 0 0 0 24.289 1.681l24.942-14.4a21.8 21.8 0 0 0-21.8-37.759l-24.942 14.4a21.826 21.826 0 0 0-10.614 22.3L56.239 274.92a35.183 35.183 0 0 0-18 31.178v86.976h-5.891a8 8 0 0 0-8 8v71.208a8 8 0 0 0 8 8h20.51V504a8 8 0 0 0 8 8h390.284a8 8 0 0 0 8-8v-23.718h20.51a8 8 0 0 0 8-8v-71.208a8 8 0 0 0-8-8zM133.781 234.435a5.756 5.756 0 0 1 2.686-3.526l24.942-14.4a5.707 5.707 0 0 1 2.862-.767 5.984 5.984 0 0 1 1.535.2 5.784 5.784 0 0 1 1.4 10.61l-24.942 14.4a5.784 5.784 0 0 1-8.486-6.52zm286.475 104.517v54.122h-43.278v-17.519a8 8 0 0 0-16 0v17.519h-67.09l-10.5-44 8.019-26.052 27.437 19.478a8 8 0 0 0 12.632-6.522v-58.086l58.988 19.665a43.014 43.014 0 0 1 29.792 41.395zm-150.924 1.407h-26.967l-8.287-26.921L256 297.87l21.673 15.391zm-26.317 16h25.667l8.757 36.715h-43.181zm72.461-83.8v47.923l-45.659-32.424 29.44-20.907zm22.611-104.574a83.392 83.392 0 0 0-1.216-28.526h.791a14.266 14.266 0 0 1 .425 28.526zM160.933 83.041a99.839 99.839 0 0 1 182.452-14.07c7.216 13.586 6.342 19.222 4 34.288-.275 1.777-.567 3.657-.862 5.661a259.379 259.379 0 0 1-2.7 15.172 30.275 30.275 0 0 0-6.166-.633h-5.755c-9.839-32.682-20.876-49.568-34.653-53.053-8.646-2.185-17.27.995-25.635 9.452a8.043 8.043 0 0 0-1.2 1.552c-16.134 27.263-44.9 40.3-85.5 38.718a8.051 8.051 0 0 0-6.781 3.331h-.118a30.113 30.113 0 0 0-11.758 2.377c-5.629-14.781-7.432-29.15-5.324-42.795zm2.821 70.691a14.287 14.287 0 0 1 9.087-13.283 85.591 85.591 0 0 0-.781 26.233 14.282 14.282 0 0 1-8.306-12.95zm26.521-17.479c.416 0 .829.005 1.243.005 42.743 0 73.713-15.388 92.132-45.8 3.814-3.676 7.07-5.2 9.681-4.544 3.554.9 13 7.029 23.94 44.449a8.131 8.131 0 0 0 .3.844 67.561 67.561 0 0 1-103.517 79.632c-22.579-17.364-31.924-47.381-23.779-74.586zm64.972 104.579a83.619 83.619 0 0 0 35.5-7.9V253.6c-.1.066-.21.126-.311.2L256 278.247l-34.742-24.672v-19.962a83.638 83.638 0 0 0 33.989 7.219zm-42.5 26.319 29.441 20.907-45.659 32.424v-47.924zm-121 71.8a43.012 43.012 0 0 1 29.791-41.395l58.989-19.665v58.084a8 8 0 0 0 12.632 6.522l27.183-19.3 7.965 25.875-10.5 44.005h-66.785v-17.522a8 8 0 0 0-16 0v17.519H91.745zM443.142 496H68.858v-15.718h374.284zm28.51-31.718H40.348v-55.208h431.3z" fill="#0098ff" opacity="1" data-original="#000000" class=""></path></g></svg>