<svg xmlns="http://www.w3.org/2000/svg" version="1.1" xmlns:xlink="http://www.w3.org/1999/xlink" width="512" height="512" x="0" y="0" viewBox="0 0 512 512" style="enable-background:new 0 0 512 512" xml:space="preserve" class=""><g><path d="M38.105 85.572 111 107.61v113.43c0 3.917 2.288 7.475 5.853 9.1 43.822 19.973 85.734 31.834 139.322 30.899 68.745-1.197 123.755-23.955 138.977-30.901a10 10 0 0 0 5.849-9.098V107.613l40-12.095V232.52c-11.639 4.128-20 15.243-20 28.28 0 16.542 13.458 30 30 30s30-13.458 30-30c0-13.036-8.361-24.152-20-28.28V89.471l12.896-3.899a10 10 0 0 0-.002-19.144l-215-65a10.01 10.01 0 0 0-5.788 0l-215 65a10 10 0 0 0-.002 19.144zM451 250.8c5.514 0 10 4.486 10 10s-4.486 10-10 10-10-4.486-10-10 4.486-10 10-10zm-70-36.294c-19.707 8.325-67.228 25.526-125.175 26.535-59.286 1.035-100.571-15.568-124.825-26.448V113.656l122.106 36.916c1.887.57 3.9.57 5.787 0L381 113.66zM256 21.447l180.45 54.555c-2.958.894-18.611 5.628-180.45 54.552L75.553 76.001zM456 316H313.96c-.442-.548-.9-1.082-1.395-1.577-6.202-6.191-14.703-6.659-21.533-7.034-3.048-.167-6.502-.357-8.232-1.077-1.523-.631-3.974-2.853-6.137-4.813C271.502 296.822 265.079 291 256 291s-15.502 5.822-20.663 10.5c-2.163 1.96-4.614 4.181-6.135 4.812-5.875 2.434-22.117-1.552-31.174 9.688H56c-30.396 0-55 24.597-55 55 0 30.327 24.673 55 55 55h142.04c3.308 4.105 7.703 6.379 12.96 7.518V501a9.998 9.998 0 0 0 14.961 8.683L256 492.518l30.039 17.165a9.996 9.996 0 0 0 9.98-.034A9.998 9.998 0 0 0 301 501v-67.483c5.218-1.132 9.663-3.409 12.972-7.517H456c30.327 0 55-24.673 55-55s-24.673-55-55-55zM56 406c-15.825 0-29.231-10.558-33.545-25h156.051c3.767 7.397 11.374 13.345 12.808 16.804.714 1.719.905 5.155 1.072 8.196zm135.312-61.8c-1.43 3.45-9.04 9.405-12.806 16.8H22.446c4.2-14.164 17.392-25 33.554-25h136.387c-.168 3.04-.36 6.478-1.075 8.2zM281 483.768l-20.039-11.451a10 10 0 0 0-9.923 0L231 483.768v-46.972c5.88 4.358 13.188 14.204 25 14.204 11.81 0 19.125-9.852 25-14.203zm29.682-105.536c-3.052 3.367-6.51 7.183-8.468 11.905-3.438 8.285-1.92 17.935-3.546 22.716-.126.382-.227.548-.22.555-1.204.907-7.034 1.153-8.589 1.24-4.625.257-9.867.547-14.719 2.564-4.726 1.959-8.542 5.417-11.909 8.469-2.05 1.859-5.867 5.319-7.231 5.319s-5.181-3.46-7.232-5.318c-3.367-3.052-7.183-6.51-11.899-8.465-4.861-2.021-10.103-2.312-14.728-2.568-1.452-.081-7.431-.336-8.548-1.195-.001-.001-.123-.163-.291-.658-1.577-4.659-.095-14.412-3.515-22.654-1.959-4.726-5.417-8.542-8.469-11.909C199.46 376.181 196 372.364 196 371s3.46-5.181 5.318-7.232c3.052-3.367 6.51-7.183 8.468-11.905 3.438-8.285 1.92-17.935 3.546-22.716.127-.385.228-.551.221-.557 1.097-.827 5.746-1.083 8.528-1.236 4.642-.256 9.903-.546 14.778-2.566 4.726-1.959 8.542-5.417 11.909-8.469C250.819 314.46 254.636 311 256 311s5.181 3.46 7.232 5.318c3.367 3.052 7.183 6.51 11.9 8.465 4.882 2.029 10.152 2.319 14.802 2.575 2.788.153 7.454.41 8.473 1.189.001.001.123.163.291.658 1.577 4.659.095 14.412 3.515 22.654 1.959 4.726 5.417 8.542 8.469 11.909C312.54 365.819 316 369.636 316 371s-3.46 5.181-5.318 7.232zM319.613 406c.169-3.04.36-6.478 1.075-8.2 1.43-3.45 9.04-9.405 12.806-16.8h68.417c1.73 9.38 5.855 17.928 11.705 25zM456 406c-19.299 0-35-15.701-35-35 0-5.523-4.477-10-10-10h-77.506c-3.767-7.397-11.374-13.345-12.808-16.804-.714-1.719-.905-5.155-1.072-8.196H456c19.299 0 35 15.701 35 35s-15.701 35-35 35z" fill="#0098ff" opacity="1" data-original="#000000" class=""></path><path d="M261 361h-10c-5.523 0-10 4.477-10 10s4.477 10 10 10h10c5.523 0 10-4.477 10-10s-4.477-10-10-10z" fill="#0098ff" opacity="1" data-original="#000000" class=""></path></g></svg>