<svg xmlns="http://www.w3.org/2000/svg" version="1.1" xmlns:xlink="http://www.w3.org/1999/xlink" width="512" height="512" x="0" y="0" viewBox="0 0 512 512" style="enable-background:new 0 0 512 512" xml:space="preserve" class=""><g><path d="M32 330.504V256H16v76.494a8.001 8.001 0 0 0 .933 3.749L80 455.15v46.672h16V453.16a8.001 8.001 0 0 0-.933-3.749Z" fill="#0098ff" opacity="1" data-original="#000000" class=""></path><path d="m151.57 332.41-27.652-24.886A39.998 39.998 0 0 0 80 301.112v-71.947a55.342 55.342 0 0 0-56.111-55.337 8 8 0 0 0-7.889 8V240h16v-49.5a39.377 39.377 0 0 1 32 38.665v87.955a7.98 7.98 0 0 0 1.3 4.412l.004.008.006.007.006.01.005.007.008.012.003.005.012.017 32 48a8 8 0 1 0 13.312-8.875l-28.26-42.392a23.997 23.997 0 0 1 30.819 1.085l27.652 24.887a72.334 72.334 0 0 1 23.538 60.036l-4.372 48.098q-.033.36-.033.724v48.662h16v-48.3l4.34-47.735a88.407 88.407 0 0 0-28.77-73.377ZM488.111 173.828A55.342 55.342 0 0 0 432 229.165v71.947a40.005 40.005 0 0 0-43.918 6.412L360.43 332.41a88.407 88.407 0 0 0-28.77 73.377l4.34 47.735v48.3h16V453.16q0-.363-.033-.725l-4.372-48.097a72.334 72.334 0 0 1 23.538-60.036l27.652-24.887a23.999 23.999 0 0 1 30.82-1.085l-28.261 42.392a8 8 0 1 0 13.312 8.875l32-48 .012-.017.003-.005.008-.012.005-.007.006-.01.006-.008.005-.008A7.98 7.98 0 0 0 448 317.12v-87.955a39.378 39.378 0 0 1 32-38.665v140.004l-63.067 118.908a8.001 8.001 0 0 0-.933 3.749v48.662h16V455.15l63.067-118.908a8.001 8.001 0 0 0 .933-3.749V181.827a8 8 0 0 0-7.889-7.999ZM393.352 200.397l-15.69-3.138A184.37 184.37 0 0 1 291.9 318.952L256 340.493l-35.902-21.54a184.37 184.37 0 0 1-85.76-121.694L114.19 96.513 256 32.698l141.811 63.815-17.184 85.918 15.69 3.138L414.75 93.4a8 8 0 0 0-4.562-8.864L259.283 16.63a7.999 7.999 0 0 0-6.566 0L101.812 84.537a8 8 0 0 0-4.562 8.864l21.398 106.996a200.403 200.403 0 0 0 93.218 132.275l40.018 24.01a8 8 0 0 0 8.232 0l40.017-24.01a200.402 200.402 0 0 0 93.219-132.275Z" fill="#0098ff" opacity="1" data-original="#000000" class=""></path><path d="m300.717 87.911 6.566-14.591-48-21.6a8 8 0 0 0-6.566 0l-48 21.6 6.566 14.59L256 67.789ZM256 303.175l-19.438-11.662a151.891 151.891 0 0 1-17.077-11.92l-10.038 12.46a167.804 167.804 0 0 0 18.884 13.18l23.553 14.131a8 8 0 0 0 8.232 0l23.554-14.132a167.86 167.86 0 0 0 18.883-13.18l-10.038-12.459a151.864 151.864 0 0 1-17.077 11.919ZM346.228 182.07l19.568-29.403a7.98 7.98 0 0 0 .694-1.282 18.7 18.7 0 0 0-14.726-25.506 7.9 7.9 0 0 0-1.728-.018l-28.895 2.832a24.319 24.319 0 0 0-14.249 3.146l-20.198 11.676-68.959-15.325a8.005 8.005 0 0 0-6.183 1.16l-23.224 15.536a8 8 0 0 0 .394 13.546l45.21 26.577-27.785 22.228-28.107-7.41a8.002 8.002 0 0 0-5.295.427l-16 7.128a8 8 0 0 0-2.496 12.869l40 41.37a8.001 8.001 0 0 0 9.67 1.413l139.568-78.422a7.994 7.994 0 0 0 2.741-2.543Zm-144.767 63.992-27.765-28.716 2.987-1.33 29.277 7.72a7.991 7.991 0 0 0 7.038-1.489l40-32a8 8 0 0 0-.944-13.143l-44.236-26.005 9.786-6.547 68.66 15.258a8 8 0 0 0 5.74-.883l22.89-13.232a8.466 8.466 0 0 1 5.294-1.018 8.022 8.022 0 0 0 1.728.018l28.424-2.787a2.872 2.872 0 0 1 1.144 1.137 2.803 2.803 0 0 1 .405 1.641l-17.916 26.919Z" fill="#0098ff" opacity="1" data-original="#000000" class=""></path></g></svg>