<svg xmlns="http://www.w3.org/2000/svg" version="1.1" xmlns:xlink="http://www.w3.org/1999/xlink" width="512" height="512" x="0" y="0" viewBox="0 0 64 64" style="enable-background:new 0 0 512 512" xml:space="preserve" class=""><g><path d="M42.4 54.496c0 2.2-1.79 4-4 4h-30c-2.21 0-4-1.8-4-4v-40c0-2.21 1.79-4 4-4h30c2.21 0 4 1.79 4 4v11.02l.16.04 1.84-1.77v-9.29c-.004-3.802-3.339-6.383-7.019-6-.12-3.145-3.344-5.6-6.417-4.86L8.248 8.505c-3.239.082-5.847 2.734-5.847 5.992v40c0 3.31 2.69 6 6 6h30c3.31 0 6-2.69 6-6v-1.34a4.337 4.337 0 0 1-2-.95v2.29z" fill="#0098ff" opacity="1" data-original="#000000" class=""></path><path d="M10.4 42.536c-1.313.025-1.314 1.982 0 2l12.44-.01-1.52-2zM10.4 46.536c-1.313.025-1.314 1.982 0 2h15.51l-1.53-2zM10.4 53.539c.104 3.956 5.898 3.955 6 0-.103-3.956-5.896-3.955-6 0zM18.4 53.539a1 1 0 0 0 1 1h6a1 1 0 1 0 0-2h-6a1 1 0 0 0-1 1zM35.4 54.516c1.313-.02 1.316-1.978 0-2h-6a1 1 0 1 0 0 2zM46.78 24.266l-3.638 3.51-7.794-2.048a2.442 2.442 0 0 0-2.092.418l-3.372 2.576c-1.385.993-1.21 3.288.31 4.061l4.954 2.707-5.437 5.246-6.09-1.39c-.875-.24-1.595.89-1.01 1.58l5.2 6.81a5.232 5.232 0 0 0 3.49 2.03 5.23 5.23 0 0 0 3.91-1.04l6.34-4.84 1.31 5.49c.24 1.076 1.267 1.872 2.37 1.86.52 0 1.04-.17 1.47-.5l3.37-2.57c.6-.46.95-1.16.95-1.91l.09-9.67 9.14-6.98c.78-.6 1.27-1.51 1.34-2.49s-.28-1.95-.97-2.66c-3.76-3.83-9.97-3.92-13.84-.19zm12.25 3.75-7.89 6.03v-.52c-.015-1.317-1.97-1.33-2-.02-.019 2.983-.092 9.665-.12 12.73 0 .13-.06.26-.16.34l-3.38 2.57c-.283.203-.574.08-.67-.24-.532-2.246-1.802-7.505-2.3-9.62-.311-1.273-2.231-.817-1.94.46l.48 2.01-7.05 5.38c-1.378 1.104-3.56.816-4.6-.61l-3.53-4.62 3.92.9c.33.08.67-.02.92-.26l6.8-6.557 10.66-10.283c3.08-2.97 8.02-2.9 11.02.15.6.589.54 1.673-.16 2.16zM25.757 22.713c-.018-.071-.036-.143-.063-.215v.215zM25.757 30.418h-.063v.215c.027-.071.045-.143.063-.215zM18.717 16.871c-1.078 1.248-1.93 2.954-2.47 4.966h-2.963a11.121 11.121 0 0 1 5.433-4.966zM15.592 27c0 1.338.126 2.622.35 3.816h-3.26c-.903-2.35-.903-5.281 0-7.632h3.26a20.717 20.717 0 0 0-.35 3.816zM18.717 37.129a11.12 11.12 0 0 1-5.433-4.966h2.963c.54 2.012 1.392 3.718 2.47 4.966zM32.716 21.837h-2.963c-.54-2.012-1.392-3.718-2.47-4.966a11.121 11.121 0 0 1 5.433 4.966zM33.53 23.82c-1.036.217-2.312 1.403-3.15 2.01-.05-.92-.16-1.8-.32-2.65h3.26c.08.21.15.42.21.64zM22.327 32.163v5.765c-1.985-.422-3.718-2.667-4.652-5.765z" fill="#0098ff" opacity="1" data-original="#000000" class=""></path><path d="M27.89 33.41c-.79 1.95-1.91 3.43-3.2 4.13-.291-.055-.73-.186-1.02-.21v-5.17h3.53c.16.46.39.88.69 1.25zM29.06 26.84c-1.343.871-2.196 2.305-2.1 3.98h-3.29v-7.64h5c.25 1.15.38 2.38.39 3.66zM28.325 21.837h-4.652v-5.765c1.985.422 3.718 2.667 4.652 5.765zM22.327 16.072v5.765h-4.652c.934-3.098 2.667-5.343 4.652-5.765z" fill="#0098ff" opacity="1" data-original="#000000" class=""></path><path d="M23 12c-18.59.573-20.36 26.649-2.19 29.84-.38-.6-.51-1.35-.35-2.09C14.5 38.57 10 33.3 10 27c.395-15.32 21.481-17.83 25.59-3.25.116-.014 2.004.516 2.17.55C36.48 17.31 30.35 12 23 12z" fill="#0098ff" opacity="1" data-original="#000000" class=""></path><path d="M17.334 23.184c-.526 2.361-.526 5.27 0 7.632h4.993v-7.632zM20 27c-1.314-.022-1.314-1.978 0-2 1.314.022 1.314 1.978 0 2z" fill="#0098ff" opacity="1" data-original="#000000" class=""></path></g></svg>