<svg xmlns="http://www.w3.org/2000/svg" version="1.1" xmlns:xlink="http://www.w3.org/1999/xlink" width="512" height="512" x="0" y="0" viewBox="0 0 64 64" style="enable-background:new 0 0 512 512" xml:space="preserve" class=""><g><path d="M25 48a11 11 0 1 0-11-11 11.012 11.012 0 0 0 11 11Zm-5.508-3.898c.351-.15.717-.274 1.086-.394a13.568 13.568 0 0 0 .887 1.567 8.998 8.998 0 0 1-1.974-1.173ZM25.003 46c-.423-.026-1.51-1.042-2.446-2.776A14.825 14.825 0 0 1 25 43a14.821 14.821 0 0 1 2.443.224c-.934 1.733-2.02 2.75-2.44 2.776ZM25 41a16.794 16.794 0 0 0-3.276.322A13.22 13.22 0 0 1 21.038 38h7.924a13.225 13.225 0 0 1-.686 3.322A16.793 16.793 0 0 0 25 41Zm3.535 4.275a13.583 13.583 0 0 0 .887-1.567c.37.12.735.243 1.086.394a8.998 8.998 0 0 1-1.973 1.173Zm3.504-2.682a14.57 14.57 0 0 0-1.855-.766A15.696 15.696 0 0 0 30.962 38h2.979a8.95 8.95 0 0 1-1.902 4.593ZM33.94 36h-2.979a15.696 15.696 0 0 0-.778-3.827 14.57 14.57 0 0 0 1.855-.766A8.95 8.95 0 0 1 33.94 36Zm-3.433-6.102c-.351.15-.717.274-1.086.394a13.583 13.583 0 0 0-.887-1.567 8.998 8.998 0 0 1 1.974 1.173ZM24.998 28c.423.026 1.51 1.042 2.446 2.776A14.825 14.825 0 0 1 25 31a14.821 14.821 0 0 1-2.443-.224c.934-1.733 2.02-2.75 2.44-2.776ZM25 33a16.794 16.794 0 0 0 3.276-.322A13.22 13.22 0 0 1 28.962 36h-7.924a13.225 13.225 0 0 1 .686-3.322A16.793 16.793 0 0 0 25 33Zm-3.535-4.275a13.568 13.568 0 0 0-.887 1.567c-.37-.12-.735-.243-1.086-.394a8.998 8.998 0 0 1 1.973-1.173Zm-3.504 2.682a14.57 14.57 0 0 0 1.855.766A15.697 15.697 0 0 0 19.038 36h-2.979a8.95 8.95 0 0 1 1.902-4.593ZM19.038 38a15.697 15.697 0 0 0 .778 3.827 14.57 14.57 0 0 0-1.855.766A8.95 8.95 0 0 1 16.06 38ZM37 51a1 1 0 0 1-1 1H17a1 1 0 0 1 0-2h19a1 1 0 0 1 1 1Zm0 4a1 1 0 0 1-1 1H14a1 1 0 0 1 0-2h22a1 1 0 0 1 1 1ZM21 7a1 1 0 0 1 1-1h1a1 1 0 0 1 0 2h-1a1 1 0 0 1-1-1Zm-3 1a1 1 0 0 1 0-2h1a1 1 0 0 1 0 2Zm8-1a1 1 0 0 1 1-1h1a1 1 0 0 1 0 2h-1a1 1 0 0 1-1-1Zm4 0a1 1 0 0 1 1-1h1a1 1 0 0 1 0 2h-1a1 1 0 0 1-1-1Zm25-1H37V5a3.003 3.003 0 0 0-3-3H16a3.003 3.003 0 0 0-3 3v7h-2a4.995 4.995 0 0 0-5 5v40a5.006 5.006 0 0 0 5 5h28a5.006 5.006 0 0 0 5-5v-2h11a3.003 3.003 0 0 0 3-3V9a3.003 3.003 0 0 0-3-3ZM15 5a1 1 0 0 1 1-1h18a1 1 0 0 1 1 1v15h-3v-5a1 1 0 0 0-2 0v5h-2v-5a1 1 0 0 0-2 0v5h-2v-7a1 1 0 0 0-2 0v7h-2v-9a1 1 0 0 0-2 0v9h-3Zm-6.128 9.882A3.02 3.02 0 0 1 11 14h2v6h-2a3.002 3.002 0 0 1-2.128-5.118ZM42 57a3.003 3.003 0 0 1-3 3H11a3.003 3.003 0 0 1-3-3V20.974A4.951 4.951 0 0 0 11 22h28a3.003 3.003 0 0 1 3 3Zm14-5a1 1 0 0 1-1 1H44V25a5.006 5.006 0 0 0-5-5h-2V8h18a1 1 0 0 1 1 1Zm-3-37a1 1 0 0 1-1 1H42a1 1 0 0 1-.707-.293l-2-2a1 1 0 0 1 1.414-1.414L42.414 14h3.172l-2.293-2.293a1 1 0 0 1 1.414-1.414L48.414 14H52a1 1 0 0 1 1 1Zm0 5v21a1 1 0 0 1-2 0V20a1 1 0 0 1 2 0Zm-4 0v21a1 1 0 0 1-2 0V20a1 1 0 0 1 2 0Zm4 25v3a1 1 0 0 1-2 0v-3a1 1 0 0 1 2 0Zm-4 0v3a1 1 0 0 1-2 0v-3a1 1 0 0 1 2 0Z" data-name="12-Chat copy" fill="#0098ff" opacity="1" data-original="#000000"></path></g></svg>