<svg xmlns="http://www.w3.org/2000/svg" version="1.1" xmlns:xlink="http://www.w3.org/1999/xlink" width="512" height="512" x="0" y="0" viewBox="0 0 512 512" style="enable-background:new 0 0 512 512" xml:space="preserve" class=""><g><path d="M448.084 41.657h-23.899C405.006 16.654 374.837.5 340.962.5c-57.811 0-104.843 47.033-104.843 104.844v24.255c-14.742 1.194-26.374 13.564-26.374 28.608v8.431c0 14.339 10.567 26.257 24.323 28.375v16.854c0 15.297 12.432 27.742 27.713 27.742h3.74a88.497 88.497 0 0 0 34.939 32.957v4.866l-22.833 6.818a7.03 7.03 0 0 0-3.107 1.927h-14.163c-5.36 0-10.643.742-15.761 2.184a18.241 18.241 0 0 0-9.019-2.384h-200.4c-10.161 0-18.428 8.267-18.428 18.429v136.202c0 10.146 8.266 18.4 18.428 18.4h69.711l-2.417 13.728h-60.06a7.035 7.035 0 0 0-7.035 7.035v24.694a7.036 7.036 0 0 0 7.035 7.036H415.244c32.415 0 58.787-26.373 58.787-58.788V344.964c0-32.415-26.372-58.788-58.787-58.788h-7.669a7.03 7.03 0 0 0-3.107-1.927l-22.833-6.818v-4.956a88.486 88.486 0 0 0 37.181-37.167c12.665 22.943 36.996 37.853 64.131 37.853h5.269a7.035 7.035 0 0 0 7.035-7.035V88.823c-.001-26.008-21.159-47.166-47.167-47.166zm-209.629 139.62c-8.072 0-14.64-6.566-14.64-14.639v-8.431c0-8.073 6.567-14.64 14.64-14.64h14.64v37.71zm9.684 30.59v-16.519h4.966a87.408 87.408 0 0 0 5.465 29.791c-5.976-1.454-10.431-6.845-10.431-13.272zm56.459 79.013 26.466 38.531-27.417 16.897-15.237-50.595zm36.45 28.216-26.517-38.606v-2.08a87.56 87.56 0 0 0 26.432 4.065c9.27 0 18.207-1.448 26.602-4.12v2.135zm7.605 25.376v8.837h-15.181v-8.854l7.576-4.67zm-27.044 19.994-3.252 30.676-10.511-34.894 11.556-7.122v5.567c0 2.217.839 4.237 2.207 5.773zM35.177 444.937c-2.362 0-4.358-1.982-4.358-4.329V304.406c0-2.362 1.996-4.358 4.358-4.358h200.401c2.387 0 4.329 1.955 4.329 4.358v136.202c0 2.347-1.983 4.329-4.329 4.329H163.37l-2.38-13.471a7.036 7.036 0 0 0-6.928-5.812h-37.398a7.037 7.037 0 0 0-6.929 5.816l-2.371 13.467zm166.365 14.071v13.728H168.28l-2.425-13.728zm-47.55 13.727h-37.233l5.811-33.011h25.592zm67.317 24.694H49.447v-10.623h171.862zm33.838 0h-19.769v-17.658a7.035 7.035 0 0 0-7.035-7.035h-12.732v-13.728h19.966c10.146 0 18.399-8.254 18.399-18.4V304.406c0-1.244-.127-2.459-.363-3.635a44.3 44.3 0 0 1 6.743-.523h14.724l17.732 58.879v.001l25.951 86.151h-36.56c-18.25 0-33.096 14.86-33.096 33.125a32.913 32.913 0 0 0 6.04 19.025zm66.79 0h-39.733c-10.491 0-19.026-8.535-19.026-19.026 0-10.506 8.535-19.054 19.026-19.054h39.733zm6.885-67.544 6.626-62.506h11.203l6.642 62.437-4.658 15.462h-15.177zm78.193-129.638h8.229c24.657 0 44.717 20.059 44.717 44.717v107.748c0 24.658-20.06 44.717-44.717 44.717h-79.238v-38.08h78.839a7.036 7.036 0 0 0 7.035-7.036v-79.18a7.036 7.036 0 1 0-14.07 0v72.145h-44.479l25.951-86.151zm-46.522 64.236a8.644 8.644 0 0 0 2.23-5.79v-5.549l11.527 7.105-10.499 34.854zm33.193-68.769-15.237 50.595-27.417-16.897 26.466-38.531zm21.074-101.107c0 40.692-33.106 73.797-73.797 73.797-23.762 0-44.922-11.3-58.429-28.795h17.415a7.036 7.036 0 0 0 0-14.071h-25.964a73.342 73.342 0 0 1-6.82-30.93v-61.072c30.905.857 63.314-16.694 85.106-37.176 16.317 20.015 38.946 36.153 62.489 44.489zm9.089-65.574c-24.983-7.628-49.338-25.352-65.149-47.413a7.033 7.033 0 0 0-10.836-.728c-20.775 22.028-55.664 42.329-86.773 38.046a7.035 7.035 0 0 0-7.996 6.968v3.588h-2.905v-24.152c0-50.052 40.72-90.772 90.773-90.772 50.052 0 90.773 40.72 90.773 90.772v24.152h-6.755a7.214 7.214 0 0 0-1.132-.461zm19.621 14.534c8.073 0 14.64 6.567 14.64 14.64v8.431c0 8.073-6.568 14.639-14.64 14.639h-14.64v-37.71zm37.71 115.497c-25.667-.76-47.917-18.022-55.076-42.709a87.71 87.71 0 0 0 2.717-21.007h14.649c15.831 0 28.71-12.88 28.71-28.71v-8.431c0-15.044-11.633-27.414-26.375-28.608v-24.255c0-17.938-4.531-34.836-12.505-49.615h14.783c18.249 0 33.096 14.846 33.096 33.095v170.24zm-177.415-88.923v8.63a7.036 7.036 0 1 1-14.07 0v-8.63a7.036 7.036 0 1 1 14.07 0zm67.645 8.63v-8.63a7.036 7.036 0 1 1 14.07 0v8.63a7.036 7.036 0 1 1-14.07 0zm-5.604 37.011a7.036 7.036 0 0 1 4.252 8.995c-4.39 12.262-16.083 20.5-29.096 20.5-13.051 0-24.746-8.246-29.102-20.519a7.035 7.035 0 1 1 13.259-4.706c2.368 6.671 8.735 11.154 15.843 11.154 7.087 0 13.456-4.489 15.849-11.172a7.037 7.037 0 0 1 8.995-4.252zm-329.49 58.062h149.817c10.773 0 19.538-8.765 19.538-19.538V76.263c0-10.79-8.765-19.568-19.538-19.568h-.427V31.689c0-5.456-2.265-10.294-6.213-13.275-3.826-2.889-8.868-3.738-13.825-2.322L21.861 56.964c-.012.003-.022.009-.034.013-.341.099-.67.224-.988.371l-.14.068c-.31.152-.61.32-.892.515-.025.017-.047.036-.072.053a7.198 7.198 0 0 0-.742.605c-.037.035-.076.067-.113.103a7.181 7.181 0 0 0-.764.883c-.198.27-.382.551-.541.848l-.023.047a7.123 7.123 0 0 0-.395.913c-.016.044-.034.087-.049.133a7.053 7.053 0 0 0-.246.977c-.011.063-.019.127-.029.19-.051.342-.086.69-.086 1.047v190.575c.003 10.773 8.78 19.539 19.569 19.539zm133.203-244.22c.669-.19 1.229-.183 1.497.02.286.216.62.881.62 2.045v25.007H74.271zM30.82 231.633V70.767h155.313c2.964 0 5.468 2.517 5.468 5.497v178.042c0 2.964-2.504 5.468-5.468 5.468H36.316c-2.98 0-5.497-2.503-5.497-5.468v-22.673zm80.405-30.874c30.468 0 55.256-24.801 55.256-55.285 0-30.483-24.788-55.284-55.256-55.284-30.484 0-55.284 24.801-55.284 55.284 0 30.484 24.8 55.285 55.284 55.285zm0-14.071c-2.104 0-6.944-6.701-9.762-19.681h19.525c-2.819 12.98-7.659 19.681-9.763 19.681zm40.496-48.675c.445 2.422.689 4.913.689 7.461 0 2.549-.244 5.04-.689 7.462h-14.742c.146-2.477.222-4.97.222-7.462a126.9 126.9 0 0 0-.222-7.461zm-5.396-14.071h-11.023c-.946-5.152-2.237-10.019-3.879-14.364a41.498 41.498 0 0 1 14.902 14.364zm-11.023 43.065h11.023a41.506 41.506 0 0 1-14.902 14.364c1.642-4.345 2.933-9.212 3.879-14.364zm-24.077-62.746c2.104 0 6.944 6.701 9.763 19.681h-19.525c2.818-12.98 7.658-19.681 9.762-19.681zm-11.67 33.752h23.34c.151 2.368.235 4.853.235 7.461 0 2.609-.084 5.095-.235 7.462h-23.34a117.196 117.196 0 0 1-.235-7.462c-.001-2.608.083-5.093.235-7.461zm-23.454 28.994h11.047c.946 5.156 2.239 10.026 3.883 14.374a41.515 41.515 0 0 1-14.93-14.374zm14.93-57.439c-1.644 4.348-2.937 9.218-3.883 14.374H76.1a41.51 41.51 0 0 1 14.931-14.374zm-21.02 35.906c0-2.548.245-5.04.689-7.461h14.771a126.9 126.9 0 0 0-.222 7.461c0 2.492.076 4.986.222 7.462h-14.77a41.241 41.241 0 0 1-.69-7.462zm88.466 71.234a7.035 7.035 0 0 1-7.035 7.035H70.979a7.035 7.035 0 0 1 0-14.07h80.463a7.035 7.035 0 0 1 7.035 7.035zm0 25.264a7.036 7.036 0 0 1-7.035 7.036H70.979a7.036 7.036 0 0 1 0-14.071h80.463a7.035 7.035 0 0 1 7.035 7.035z" fill="#0098ff" opacity="1" data-original="#000000" class=""></path></g></svg>