<svg xmlns="http://www.w3.org/2000/svg" version="1.1" xmlns:xlink="http://www.w3.org/1999/xlink" width="512" height="512" x="0" y="0" viewBox="0 0 64 64" style="enable-background:new 0 0 512 512" xml:space="preserve" class=""><g><path d="M42 23h-2a1 1 0 0 1-1 1h-4v2h4c1.654 0 3-1.346 3-3z" fill="#0098ff" opacity="1" data-original="#000000" class=""></path><circle cx="34" cy="18" r="1" fill="#0098ff" opacity="1" data-original="#000000" class=""></circle><circle cx="42" cy="18" r="1" fill="#0098ff" opacity="1" data-original="#000000" class=""></circle><path d="M55 6c0-1.654 1.346-3 3-3s3 1.346 3 3c0 .939-.448 1.836-1.199 2.4L57 10.5V17h2v-5.5l2.001-1.5A5.026 5.026 0 0 0 63 6c0-2.757-2.243-5-5-5s-5 2.243-5 5v1h2zM55 21c0 1.654 1.346 3 3 3s3-1.346 3-3-1.346-3-3-3-3 1.346-3 3zm4 0a1 1 0 1 1-2 0 1 1 0 0 1 2 0zM53 58.475c3.49-1.239 6-4.565 6-8.475v-3c0-8.995-6.29-16.533-14.698-18.49A6.994 6.994 0 0 0 46.92 24H47c2.206 0 4-1.794 4-4 0-.891-.303-1.707-.797-2.372.519-1.384.797-2.829.797-4.315C51 6.523 45.477 1 38.687 1h-1.373C30.523 1 25 6.523 25 13.313c0 1.486.279 2.932.797 4.314A3.969 3.969 0 0 0 25 20c0 2.206 1.794 4 4 4h.08a6.994 6.994 0 0 0 2.618 4.51C23.29 30.467 17 38.005 17 47v3c0 3.91 2.51 7.236 6 8.475V61H1v2h62v-2H53zM51 61h-6v-2h5c.338 0 .671-.022 1-.059zM31 48.414l-5.707-5.707C25.102 42.516 25 42.271 25 42s.102-.516.293-.707a1.014 1.014 0 0 1 1.414 0L31 45.586zm-6-3.172L30.758 51H27c-1.103 0-2-.897-2-2zM48 57h-5a1 1 0 0 1-1-1v-2a1 1 0 0 1 1-1h2v-1a1 1 0 0 1 1-1h.172c.263 0 .521.106.707.293L48 52.414zm-5-6c-1.654 0-3 1.346-3 3v2c0 1.654 1.346 3 3 3v2H33V43h10zm-8-20.949c.333-.02.662-.051 1-.051h4c.338 0 .667.031 1 .051V31c0 1.654-1.346 3-3 3s-3-1.346-3-3zM47 22v-4c1.103 0 2 .897 2 2s-.897 2-2 2zm-20-2c0-1.103.897-2 2-2v4c-1.103 0-2-.897-2-2zm2-5.117V16c-.549 0-1.072.112-1.549.313a10.247 10.247 0 0 1-.451-3C27 7.627 31.627 3 37.313 3h1.373C44.373 3 49 7.627 49 13.313c0 1.025-.155 2.029-.45 2.999A4.001 4.001 0 0 0 47 16v-5h-2v1.811c-1.552-.618-2-2.647-2-3.811h-2c0 1.441.405 2.887 1.19 4H42c-2.373 0-3-2.616-3-4h-2c0 1.441.405 2.887 1.19 4H38c-2.373 0-3-2.616-3-4h-2c0 .31.023.619.06.926l-.641.214A4.993 4.993 0 0 0 29 14.883zM31 23v-8.117c0-1.293.824-2.437 2.052-2.847l.514-.171C34.316 13.649 35.806 15 38 15h7v8c0 2.757-2.243 5-5 5h-4c-2.757 0-5-2.243-5-5zM19 50v-3c0-8.349 6.054-15.296 14-16.719V31c0 2.757 2.243 5 5 5s5-2.243 5-5v-.719c7.946 1.423 14 8.37 14 16.719v3c0 3.859-3.141 7-7 7v-4.142c1.721-.447 3-1.999 3-3.858v-7h-2v7c0 .974-.699 1.787-1.622 1.964l-1.085-1.085A2.982 2.982 0 0 0 46.172 49H46a2.99 2.99 0 0 0-1 .176V41H31v1.758l-2.879-2.879c-1.133-1.133-3.109-1.133-4.242 0A2.982 2.982 0 0 0 23 42v7c0 2.206 1.794 4 4 4h4v4h-5c-3.859 0-7-3.141-7-7zm6 8.941c.329.037.662.059 1 .059h5v2h-6z" fill="#0098ff" opacity="1" data-original="#000000" class=""></path><path d="M2.355 30.545A4.556 4.556 0 0 0 6.781 34H9.5l2.3 3.066a2.343 2.343 0 0 0 1.867.934A2.336 2.336 0 0 0 16 35.667V34h1.219a4.555 4.555 0 0 0 4.426-3.455l1.22-4.878A4.567 4.567 0 0 0 18.438 20H5.562a4.567 4.567 0 0 0-4.425 5.668zM5.562 22h12.877a2.564 2.564 0 0 1 2.485 3.184l-1.219 4.877A2.56 2.56 0 0 1 17.219 32H14v3.667c0 .288-.429.429-.601.2L10.5 32H6.781a2.56 2.56 0 0 1-2.486-1.939l-1.218-4.876A2.565 2.565 0 0 1 5.562 22z" fill="#0098ff" opacity="1" data-original="#000000" class=""></path><path d="M6 24h12v2H6zM6 28h12v2H6z" fill="#0098ff" opacity="1" data-original="#000000" class=""></path></g></svg>